<?xml version="1.0" encoding="UTF-8"?>
<svg version="1.1" xmlns="http://www.w3.org/2000/svg" width="5000" height="5000">
<path d="M0 0 C330 0 660 0 1000 0 C1000 33 1000 66 1000 100 C1066 100 1132 100 1200 100 C1200 133 1200 166 1200 200 C1233 200 1266 200 1300 200 C1300 266 1300 332 1300 400 C1333 400 1366 400 1400 400 C1400 730 1400 1060 1400 1400 C1367 1400 1334 1400 1300 1400 C1300 1466 1300 1532 1300 1600 C1267 1600 1234 1600 1200 1600 C1200 1633 1200 1666 1200 1700 C1134 1700 1068 1700 1000 1700 C1000 1733 1000 1766 1000 1800 C670 1800 340 1800 0 1800 C0 1767 0 1734 0 1700 C-66 1700 -132 1700 -200 1700 C-200 1667 -200 1634 -200 1600 C-233 1600 -266 1600 -300 1600 C-300 1534 -300 1468 -300 1400 C-333 1400 -366 1400 -400 1400 C-400 1070 -400 740 -400 400 C-367 400 -334 400 -300 400 C-300 334 -300 268 -300 200 C-267 200 -234 200 -200 200 C-200 167 -200 134 -200 100 C-134 100 -68 100 0 100 C0 67 0 34 0 0 Z " fill="#A8E61C" transform="translate(2400,1500)"/>
<path d="M0 0 C132 0 264 0 400 0 C400 33 400 66 400 100 C466 100 532 100 600 100 C600 166 600 232 600 300 C633 300 666 300 700 300 C700 432 700 564 700 700 C667 700 634 700 600 700 C600 766 600 832 600 900 C534 900 468 900 400 900 C400 933 400 966 400 1000 C268 1000 136 1000 0 1000 C0 967 0 934 0 900 C-66 900 -132 900 -200 900 C-200 834 -200 768 -200 700 C-233 700 -266 700 -300 700 C-300 568 -300 436 -300 300 C-267 300 -234 300 -200 300 C-200 234 -200 168 -200 100 C-134 100 -68 100 0 100 C0 67 0 34 0 0 Z " fill="#42DA6C" transform="translate(1000,3700)"/>
<path d="M0 0 C132 0 264 0 400 0 C400 33 400 66 400 100 C466 100 532 100 600 100 C600 166 600 232 600 300 C633 300 666 300 700 300 C700 432 700 564 700 700 C667 700 634 700 600 700 C600 766 600 832 600 900 C534 900 468 900 400 900 C400 933 400 966 400 1000 C268 1000 136 1000 0 1000 C0 967 0 934 0 900 C-66 900 -132 900 -200 900 C-200 834 -200 768 -200 700 C-233 700 -266 700 -300 700 C-300 568 -300 436 -300 300 C-267 300 -234 300 -200 300 C-200 234 -200 168 -200 100 C-134 100 -68 100 0 100 C0 67 0 34 0 0 Z " fill="#22B04C" transform="translate(600,300)"/>
<path d="M0 0 C66 0 132 0 200 0 C200 33 200 66 200 100 C233 100 266 100 300 100 C300 166 300 232 300 300 C267 300 234 300 200 300 C200 333 200 366 200 400 C134 400 68 400 0 400 C0 367 0 334 0 300 C-33 300 -66 300 -100 300 C-100 234 -100 168 -100 100 C-67 100 -34 100 0 100 C0 67 0 34 0 0 Z " fill="#A8E61C" transform="translate(4400,3900)"/>
<path d="M0 0 C66 0 132 0 200 0 C200 33 200 66 200 100 C233 100 266 100 300 100 C300 166 300 232 300 300 C267 300 234 300 200 300 C200 333 200 366 200 400 C134 400 68 400 0 400 C0 367 0 334 0 300 C-33 300 -66 300 -100 300 C-100 234 -100 168 -100 100 C-67 100 -34 100 0 100 C0 67 0 34 0 0 Z " fill="#D2F8BC" transform="translate(800,2500)"/>
<path d="M0 0 C66 0 132 0 200 0 C200 33 200 66 200 100 C233 100 266 100 300 100 C300 166 300 232 300 300 C267 300 234 300 200 300 C200 333 200 366 200 400 C134 400 68 400 0 400 C0 367 0 334 0 300 C-33 300 -66 300 -100 300 C-100 234 -100 168 -100 100 C-67 100 -34 100 0 100 C0 67 0 34 0 0 Z " fill="#A8E61C" transform="translate(4300,1300)"/>
<path d="M0 0 C66 0 132 0 200 0 C200 33 200 66 200 100 C233 100 266 100 300 100 C300 166 300 232 300 300 C267 300 234 300 200 300 C200 333 200 366 200 400 C134 400 68 400 0 400 C0 367 0 334 0 300 C-33 300 -66 300 -100 300 C-100 234 -100 168 -100 100 C-67 100 -34 100 0 100 C0 67 0 34 0 0 Z " fill="#10AC24" transform="translate(3500,600)"/>
</svg>
