<?xml version="1.0" encoding="UTF-8"?>
<svg version="1.1" xmlns="http://www.w3.org/2000/svg" width="5000" height="5000">
<path d="M0 0 C264 0 528 0 800 0 C800 33 800 66 800 100 C866 100 932 100 1000 100 C1000 133 1000 166 1000 200 C1033 200 1066 200 1100 200 C1100 233 1100 266 1100 300 C1133 300 1166 300 1200 300 C1200 366 1200 432 1200 500 C1233 500 1266 500 1300 500 C1300 764 1300 1028 1300 1300 C1267 1300 1234 1300 1200 1300 C1200 1366 1200 1432 1200 1500 C1167 1500 1134 1500 1100 1500 C1100 1533 1100 1566 1100 1600 C1067 1600 1034 1600 1000 1600 C1000 1633 1000 1666 1000 1700 C934 1700 868 1700 800 1700 C800 1733 800 1766 800 1800 C536 1800 272 1800 0 1800 C0 1767 0 1734 0 1700 C-66 1700 -132 1700 -200 1700 C-200 1667 -200 1634 -200 1600 C-233 1600 -266 1600 -300 1600 C-300 1567 -300 1534 -300 1500 C-333 1500 -366 1500 -400 1500 C-400 1434 -400 1368 -400 1300 C-433 1300 -466 1300 -500 1300 C-500 1036 -500 772 -500 500 C-467 500 -434 500 -400 500 C-400 434 -400 368 -400 300 C-367 300 -334 300 -300 300 C-300 267 -300 234 -300 200 C-267 200 -234 200 -200 200 C-200 167 -200 134 -200 100 C-134 100 -68 100 0 100 C0 67 0 34 0 0 Z " fill="#98FE00" transform="translate(2500,1500)"/>
<path d="M0 0 C132 0 264 0 400 0 C400 33 400 66 400 100 C466 100 532 100 600 100 C600 166 600 232 600 300 C633 300 666 300 700 300 C700 432 700 564 700 700 C667 700 634 700 600 700 C600 766 600 832 600 900 C534 900 468 900 400 900 C400 933 400 966 400 1000 C268 1000 136 1000 0 1000 C0 967 0 934 0 900 C-66 900 -132 900 -200 900 C-200 834 -200 768 -200 700 C-233 700 -266 700 -300 700 C-300 568 -300 436 -300 300 C-267 300 -234 300 -200 300 C-200 234 -200 168 -200 100 C-134 100 -68 100 0 100 C0 67 0 34 0 0 Z " fill="#42DA6C" transform="translate(1000,3700)"/>
<path d="M0 0 C132 0 264 0 400 0 C400 33 400 66 400 100 C466 100 532 100 600 100 C600 166 600 232 600 300 C633 300 666 300 700 300 C700 432 700 564 700 700 C667 700 634 700 600 700 C600 766 600 832 600 900 C534 900 468 900 400 900 C400 933 400 966 400 1000 C268 1000 136 1000 0 1000 C0 967 0 934 0 900 C-66 900 -132 900 -200 900 C-200 834 -200 768 -200 700 C-233 700 -266 700 -300 700 C-300 568 -300 436 -300 300 C-267 300 -234 300 -200 300 C-200 234 -200 168 -200 100 C-134 100 -68 100 0 100 C0 67 0 34 0 0 Z " fill="#22B04C" transform="translate(600,300)"/>
<path d="M0 0 C66 0 132 0 200 0 C200 33 200 66 200 100 C233 100 266 100 300 100 C300 166 300 232 300 300 C267 300 234 300 200 300 C200 333 200 366 200 400 C134 400 68 400 0 400 C0 367 0 334 0 300 C-33 300 -66 300 -100 300 C-100 234 -100 168 -100 100 C-67 100 -34 100 0 100 C0 67 0 34 0 0 Z " fill="#98FE00" transform="translate(4400,3900)"/>
<path d="M0 0 C66 0 132 0 200 0 C200 33 200 66 200 100 C233 100 266 100 300 100 C300 166 300 232 300 300 C267 300 234 300 200 300 C200 333 200 366 200 400 C134 400 68 400 0 400 C0 367 0 334 0 300 C-33 300 -66 300 -100 300 C-100 234 -100 168 -100 100 C-67 100 -34 100 0 100 C0 67 0 34 0 0 Z " fill="#D2F8BC" transform="translate(800,2500)"/>
<path d="M0 0 C66 0 132 0 200 0 C200 33 200 66 200 100 C233 100 266 100 300 100 C300 166 300 232 300 300 C267 300 234 300 200 300 C200 333 200 366 200 400 C134 400 68 400 0 400 C0 367 0 334 0 300 C-33 300 -66 300 -100 300 C-100 234 -100 168 -100 100 C-67 100 -34 100 0 100 C0 67 0 34 0 0 Z " fill="#98FE00" transform="translate(4300,1300)"/>
<path d="M0 0 C66 0 132 0 200 0 C200 33 200 66 200 100 C233 100 266 100 300 100 C300 166 300 232 300 300 C267 300 234 300 200 300 C200 333 200 366 200 400 C134 400 68 400 0 400 C0 367 0 334 0 300 C-33 300 -66 300 -100 300 C-100 234 -100 168 -100 100 C-67 100 -34 100 0 100 C0 67 0 34 0 0 Z " fill="#10AC24" transform="translate(3500,600)"/>
</svg>
