<svg width="373" height="597" viewBox="0 0 373 597" fill="none" xmlns="http://www.w3.org/2000/svg">
<g id="Cuadro 0" opacity="0.8">
<g id="Rectangle 33" opacity="0.8">
<rect x="66.5" y="137.322" width="305" height="387.178" fill="#DFE0E2" fill-opacity="0.5"/>
<rect x="66.5" y="137.322" width="305" height="387.178" fill="#DFE0E2" fill-opacity="0.2"/>
<rect x="66.5" y="137.322" width="305" height="387.178" stroke="#191919" stroke-width="3"/>
</g>
<g id="Bamb&#195;&#186;">
<path id="Vector" d="M329.683 0.861809C328.157 5.425 322.272 62.4242 322.272 72.7321C322.272 77.3768 322.109 78.1509 320.528 81.5733C318.512 86.0142 318.24 89.1107 319.82 91.0663C321.564 93.2664 322.817 93.4294 336.657 93.3072C343.523 93.2664 349.244 93.1442 349.353 93.1035C349.626 92.8998 350.607 88.7847 351.206 85.4846C351.478 83.8141 351.969 76.4804 352.241 69.1875C352.841 54.8053 353.276 48.8568 355.02 30.4003L356.219 18.2997L351.26 13.8995C345.212 8.48071 338.837 3.79529 334.587 1.59518C330.881 -0.319733 330.119 -0.441963 329.683 0.861809Z" fill="#0DAB76"/>
<path id="Vector_2" d="M294.21 82.3882C301.62 85.0365 311.646 89.1515 315.951 91.2701C317.695 92.1257 319.22 92.7776 319.329 92.6961C319.438 92.6146 318.839 91.7998 317.967 90.9034C316.169 89.0293 312.791 86.9106 309.14 85.3217C306.524 84.2216 290.886 80.1881 289.197 80.1881C288.652 80.1881 290.94 81.1659 294.21 82.3882Z" fill="#0DAB76"/>
<path id="Vector_3" d="M295.3 91.1886C294.428 91.4331 291.485 92.4109 288.761 93.348L283.857 95.1407L290.941 95.4259C297.752 95.7111 311.701 95.1814 316.551 94.4888L318.73 94.1628L317.095 93.6739C311.102 91.7997 298.678 90.3737 295.3 91.1886Z" fill="#0DAB76"/>
<path id="Vector_4" d="M314.644 95.3038C311.32 95.7927 309.304 96.4038 307.07 97.6261C304.291 99.1744 303.746 100.641 303.746 106.345L303.8 111.356L306.525 109.116C311.374 105.164 319.548 96.4038 319.548 95.1816C319.548 94.7741 317.913 94.8149 314.644 95.3038Z" fill="#0DAB76"/>
<path id="Vector_5" d="M319.602 96.5259C318.566 99.0927 318.784 103.9 319.983 105.937C320.964 107.608 325.923 112.742 329.083 115.431L330.5 116.653L330.173 114.208C329.682 110.867 327.557 104.471 325.923 101.374C324.56 98.9297 321.236 94.8554 320.583 94.8554C320.419 94.8554 319.983 95.5888 319.602 96.5259Z" fill="#0DAB76"/>
<path id="Vector_6" d="M327.721 99.2149C327.721 100.07 328.592 103.33 329.682 106.467C330.826 109.808 331.753 113.679 331.916 115.797C332.243 119.22 332.189 119.383 331.208 118.975C328.374 117.834 324.179 113.597 319.547 107.323C317.858 105.041 316.278 103.248 316.005 103.289C315.678 103.371 315.297 105.367 315.025 107.771C314.098 118.038 306.415 170.637 304.29 181.434C303.364 186.404 301.893 190.316 298.078 198.22C296.553 201.357 296.28 204.005 297.261 204.739C297.697 205.065 299.168 205.146 301.511 204.983C303.473 204.861 308.758 205.065 313.226 205.431C326.249 206.491 331.044 206.246 331.753 204.576C333.115 201.398 341.997 158.129 345.157 139.469C347.609 124.801 349.516 108.015 349.516 100.519V99.0519L341.779 98.3593C337.474 97.9926 332.57 97.7074 330.881 97.7074H327.721V99.2149Z" fill="#0DAB76"/>
<path id="Vector_7" d="M213.02 130.587C212.802 130.994 212.421 143.217 212.149 157.803C211.604 191.945 211.604 192.068 208.116 198.179C207.081 200.013 206.209 201.683 206.209 201.968C206.209 202.579 209.588 202.539 219.559 201.805C224.082 201.479 230.784 201.194 234.435 201.194H241.191L240.864 179.071C240.647 166.929 240.374 153.607 240.211 149.491L239.884 142.036L232.691 138.532C224.136 134.335 214.383 129.894 213.838 129.894C213.62 129.894 213.238 130.22 213.02 130.587Z" fill="#0DAB76"/>
<path id="Vector_8" d="M214.22 206.124C211.223 206.654 210.133 207.183 209.098 208.65C208.226 209.791 208.117 211.013 208.226 217.899C208.28 225.884 209.806 243.526 211.441 255.015C212.53 263.042 213.784 266.545 216.454 269.52C220.159 273.635 220.976 275.183 221.467 279.135C221.794 281.417 222.23 283.046 222.72 283.413C224.518 284.717 238.249 284.35 242.391 282.883C245.388 281.824 245.714 280.683 245.66 271.475C245.551 263.734 245.061 256.726 241.9 221.402C241.137 213.132 240.538 206.246 240.538 206.042C240.538 205.554 216.944 205.635 214.22 206.124Z" fill="#0DAB76"/>
<path id="Vector_9" d="M296.498 207.387C295.409 207.998 293.61 214.354 287.944 237.252C281.514 263.368 279.607 271.883 275.683 292.865C273.013 306.799 272.959 307.411 273.776 309.651C274.43 311.363 274.921 311.526 283.203 312.585C287.126 313.115 289.251 313.155 295.136 312.789C299.114 312.544 303.092 312.137 304.018 311.852C305.653 311.322 305.762 311.2 306.906 306.27C308.432 299.914 310.938 288.18 315.188 267.809C317.15 258.478 320.092 246.459 322.326 238.678C328.32 217.817 329.301 214.191 329.464 211.421C329.628 208.895 329.573 208.813 328.157 208.487C326.74 208.202 316.932 207.672 303.473 207.102C298.896 206.898 297.261 206.98 296.498 207.387Z" fill="#0DAB76"/>
<path id="Vector_10" d="M207.408 269.316C209.969 271.394 213.511 274.531 215.363 276.283C218.415 279.176 218.742 279.38 218.742 278.32C218.687 275.305 214.382 271.15 207.571 267.646C205.392 266.505 203.43 265.568 203.212 265.568C202.994 265.568 204.901 267.279 207.408 269.316Z" fill="#0DAB76"/>
<path id="Vector_11" d="M183.052 275.957C182.779 276.039 180.818 276.242 178.692 276.405L174.878 276.691L177.33 277.261C185.177 279.013 211.277 282.68 212.04 282.109C212.53 281.743 202.995 278.198 198.254 277.017C194.113 275.957 192.424 275.754 188.446 275.794C185.776 275.794 183.379 275.876 183.052 275.957Z" fill="#0DAB76"/>
<path id="Vector_12" d="M212.203 277.057C212.203 278.402 213.838 280.561 215.745 281.62C216.835 282.272 217.816 282.68 217.979 282.598C218.088 282.517 217.053 281.254 215.69 279.787C212.476 276.446 212.203 276.242 212.203 277.057Z" fill="#0DAB76"/>
<path id="Vector_13" d="M196.837 285.328C191.715 286.387 189.209 287.65 183.488 292.01C180.436 294.373 178.039 296.369 178.148 296.451C178.965 297.062 212.748 285.939 212.748 285.043C212.748 284.513 199.671 284.717 196.837 285.328Z" fill="#0DAB76"/>
<path id="Vector_14" d="M214.001 287.936C209.806 290.421 205.719 293.884 204.302 296.206C203.103 298.121 202.94 298.895 202.94 303.459L202.994 308.552L204.575 307.126C207.027 304.885 212.585 297.836 214.655 294.251C216.453 291.154 217.925 286.347 217.053 286.347C216.835 286.347 215.472 287.039 214.001 287.936Z" fill="#0DAB76"/>
<path id="Vector_15" d="M219.178 290.543C218.688 292.01 217.107 294.984 215.745 297.225L213.184 301.218L213.511 305.496C213.947 311.037 217.979 349.457 219.014 357.606C220.104 366.202 219.014 365.591 233.073 365.591H244.08L248.602 363.635C251.981 362.128 253.07 361.435 253.07 360.783C253.07 360.05 251.327 342.042 247.131 299.058C246.586 293.395 245.932 288.628 245.769 288.465C245.551 288.302 239.666 288.139 232.746 288.058L220.104 287.895L219.178 290.543Z" fill="#0DAB76"/>
<path id="Vector_16" d="M318.316 309.18C316.082 309.628 314.012 310.198 313.685 310.443C313.303 310.769 313.412 310.809 314.121 310.606C314.666 310.483 320.932 310.361 328.015 310.361C335.535 310.361 340.602 310.198 340.112 309.995C338.75 309.383 329.269 308.324 325.727 308.365C323.874 308.365 320.55 308.732 318.316 309.18Z" fill="#0DAB76"/>
<path id="Vector_17" d="M314.048 312.991C314.048 313.399 321.458 318.451 327.125 321.832C335.408 326.803 342.382 330.551 342.382 330.062C342.382 329.777 341.129 327.659 339.603 325.377C336.443 320.61 334.209 318.899 328.324 316.577C322.766 314.417 314.048 312.217 314.048 312.991Z" fill="#0DAB76"/>
<path id="Vector_18" d="M273.504 316.496C272.85 316.659 272.087 317.107 271.706 317.433C270.779 318.248 264.023 355.365 264.677 355.854C264.84 355.976 266.039 355.854 267.292 355.569C268.981 355.161 273.722 355.039 283.748 355.08C291.431 355.12 297.752 354.998 297.806 354.876C297.806 354.713 298.623 349.824 299.604 343.998C300.585 338.171 301.348 333.364 301.293 333.282C301.239 333.242 299.114 334.138 296.607 335.279C292.03 337.438 278.353 342.653 276.119 343.183C275.411 343.305 274.866 343.264 274.866 343.061C274.866 342.572 280.37 336.053 284.511 331.693C286.363 329.697 290.614 325.826 293.883 323.015C298.242 319.389 299.713 317.882 299.168 317.637C296.607 316.578 276.228 315.641 273.504 316.496Z" fill="#0DAB76"/>
<path id="Vector_19" d="M306.742 317.393C302.274 320 294.809 325.786 290.722 329.738C286.309 333.975 283.039 337.438 283.039 337.845C283.039 338.783 297.751 331.979 300.694 329.656C303.255 327.66 307.015 322.73 308.649 319.104C310.284 315.518 310.121 315.355 306.742 317.393Z" fill="#0DAB76"/>
<path id="Vector_20" d="M312.684 316.66C312.193 318.412 312.193 337.398 312.629 340.698C312.847 342.043 313.174 343.184 313.392 343.184C313.61 343.184 315.462 340.739 317.479 337.724C320.748 332.916 321.184 331.898 321.456 329.372C321.62 327.62 321.456 325.746 321.02 324.605C320.312 322.69 317.479 319.186 314.645 316.742L313.01 315.316L312.684 316.66Z" fill="#0DAB76"/>
<path id="Vector_21" d="M269.962 357.443C268.001 357.728 265.821 358.176 265.058 358.42C263.751 358.787 263.751 358.828 264.895 358.828C266.148 358.869 283.203 357.361 284.675 357.076C287.072 356.628 272.959 356.994 269.962 357.443Z" fill="#0DAB76"/>
<path id="Vector_22" d="M284.674 359.358C277.155 359.928 264.459 361.273 263.914 361.517C262.66 362.128 263.805 362.495 268.763 363.147C280.043 364.654 284.783 366.243 290.45 370.44L294.428 373.333L294.755 371.907C295.681 367.71 296.989 359.236 296.771 359.073C296.335 358.787 290.069 358.91 284.674 359.358Z" fill="#0DAB76"/>
<path id="Vector_23" d="M260.699 364.817C260.699 365.551 290.941 375.492 291.649 374.962C292.194 374.595 285.11 369.462 282.767 368.566C279.171 367.18 274.921 366.243 268.437 365.388C261.789 364.532 260.699 364.45 260.699 364.817Z" fill="#0DAB76"/>
<path id="Vector_24" d="M245.333 367.995C243.371 369.217 240.047 371.784 237.922 373.699C233.836 377.407 227.733 384.048 228.114 384.333C228.496 384.618 237.323 380.585 240.756 378.547C244.134 376.592 246.477 374.106 248.112 370.888C249.474 368.24 250.073 365.795 249.42 365.795C249.147 365.795 247.294 366.773 245.333 367.995Z" fill="#0DAB76"/>
<path id="Vector_25" d="M255.522 367.914C256.176 371.743 257.974 378.099 259.718 382.622C261.135 386.207 261.571 386.94 262.116 386.492C262.987 385.84 266.475 379.118 266.965 377.162C267.456 375.125 266.42 372.558 264.35 370.806C262.497 369.217 256.558 365.795 255.686 365.795C255.359 365.795 255.304 366.61 255.522 367.914Z" fill="#0DAB76"/>
<path id="Vector_26" d="M231.275 368.728C226.915 368.891 222.665 369.177 221.739 369.38L220.104 369.706L219.941 374.595C219.723 379.403 220.213 392.604 221.739 423.568L222.556 439.58L224.354 440.884C225.335 441.617 226.534 442.636 227.024 443.206L227.896 444.225L239.666 444.143C250.019 444.062 251.817 443.94 253.888 443.247C255.631 442.677 256.231 442.269 256.067 441.699C255.849 440.925 255.195 427.928 253.888 396.76C253.016 376.429 252.58 370.277 252.035 370.277C251.817 370.277 251.327 370.969 250.945 371.784C248.875 376.062 243.589 380.259 236.015 383.64C231.819 385.555 221.848 389.426 221.194 389.426C220.813 389.426 222.992 386.207 226.098 382.296C228.496 379.24 233.999 373.618 237.868 370.154C238.794 369.299 239.502 368.566 239.393 368.525C239.284 368.484 235.634 368.566 231.275 368.728Z" fill="#0DAB76"/>
<path id="Vector_27" d="M269.145 372.355C270.889 376.022 269.69 379.974 263.914 389.304L261.68 392.889L260.427 391.056C258.955 388.978 258.737 389.141 258.029 393.052C257.593 395.619 257.648 395.741 259.664 398.552C263.26 403.645 264.404 409.553 262.606 414.035C262.17 415.135 261.843 416.113 261.952 416.194C262.497 416.561 278.844 417.213 281.514 416.968C286.473 416.479 287.126 415.868 288.162 410.734C289.36 404.705 293.393 380.381 293.393 379.118C293.393 378.222 292.957 377.937 290.287 377.203C288.543 376.714 283.04 375.044 278.027 373.496C273.014 371.947 268.818 370.684 268.655 370.684C268.491 370.684 268.709 371.458 269.145 372.355Z" fill="#0DAB76"/>
<path id="Vector_28" d="M177.221 378.466C177.058 378.996 175.532 384.007 173.897 389.63C172.208 395.211 170.683 400.63 170.519 401.649L170.138 403.482L171.282 402.464C173.08 400.793 177.112 394.315 178.148 391.341C178.965 389.1 179.074 387.755 178.747 383.64C178.366 378.629 177.766 376.592 177.221 378.466Z" fill="#0DAB76"/>
<path id="Vector_29" d="M147.579 397.982C148.778 399 152.81 402.178 156.57 405.112C162.509 409.756 163.163 410.164 161.801 408.371C159.458 405.275 156.951 403.115 152.102 400.1C145.781 396.189 145.181 395.904 147.579 397.982Z" fill="#0DAB76"/>
<path id="Vector_30" d="M257.048 402.952C257.211 404.378 257.974 406.741 258.738 408.208L260.1 410.816V408.534C260.155 406.09 258.411 401.078 257.32 400.589C256.884 400.386 256.775 401.037 257.048 402.952Z" fill="#0DAB76"/>
<path id="Vector_31" d="M216.563 403.278C217.598 403.808 218.198 403.808 218.198 403.278C218.198 403.034 217.653 402.871 216.999 402.871C215.963 402.871 215.909 402.952 216.563 403.278Z" fill="#0DAB76"/>
<path id="Vector_32" d="M257.484 413.709C257.43 414.401 257.811 415.216 258.247 415.501C259.065 416.031 259.065 415.868 257.811 413.057C257.648 412.731 257.484 413.016 257.484 413.709Z" fill="#0DAB76"/>
<path id="Vector_33" d="M122.023 416.561C119.081 416.927 109.273 418.801 107.202 419.372L105.132 419.983L107.311 419.779C113.577 419.209 139.242 417.661 145.181 417.498L147.088 417.457L144.909 417.09C142.457 416.683 124.53 416.275 122.023 416.561Z" fill="#0DAB76"/>
<path id="Vector_34" d="M175.314 420.676C174.115 421.287 203.212 424.098 209.915 424.016L213.02 423.976L209.206 423.202C201.196 421.572 193.404 420.716 184.686 420.553C179.891 420.431 175.641 420.513 175.314 420.676Z" fill="#0DAB76"/>
<path id="Vector_35" d="M259.718 421.898C258.574 423.609 258.356 425.565 258.465 434.487C258.574 441.902 258.465 444.021 257.865 444.266C257.484 444.469 256.176 444.958 254.977 445.325C252.798 446.018 252.798 446.018 254.432 446.058C257.756 446.099 257.647 445.814 258.083 458.159C258.247 464.393 258.682 479.101 259.009 490.875C259.336 502.65 259.772 513.854 259.936 515.81C260.263 519.273 260.372 519.395 261.625 519.395C263.151 519.395 266.42 518.417 266.91 517.847C267.673 516.91 269.417 507.661 277.59 462.111C279.388 452.007 281.568 440.558 282.494 436.647C284.565 427.561 285.219 422.794 284.456 422.59C283.911 422.468 262.66 421.205 260.862 421.205C260.481 421.205 259.99 421.531 259.718 421.898Z" fill="#0DAB76"/>
<path id="Vector_36" d="M145.454 423.935C144.854 424.057 139.95 425.32 134.556 426.787C123.222 429.843 110.907 434.202 105.894 436.932C100.663 439.825 91.1278 445.732 91.4002 445.936C91.9451 446.343 129.161 432.083 140.55 427.072C147.579 423.976 148.56 423.365 145.454 423.935Z" fill="#0DAB76"/>
<path id="Vector_37" d="M164.308 424.627C164.417 424.709 171.991 427.235 181.145 430.168C201.96 436.932 214.656 441.332 219.778 443.532L223.701 445.243L223.538 444.102C223.374 443.165 222.72 442.758 218.742 441.291C206.537 436.769 187.629 430.78 171.991 426.461C165.234 424.587 163.763 424.22 164.308 424.627Z" fill="#0DAB76"/>
<path id="Vector_38" d="M153.028 426.054C146.98 427.683 143.22 429.883 141.095 433.021C139.188 435.791 136.245 442.677 134.284 448.91C133.357 451.925 132.322 454.9 132.104 455.511C131.832 456.163 131.832 456.651 132.05 456.651C132.758 456.651 143.765 448.014 145.672 445.936C149.214 442.066 155.97 430.861 157.442 426.38C157.932 425.035 157.115 424.954 153.028 426.054Z" fill="#0DAB76"/>
<path id="Vector_39" d="M217.162 427.887C216.235 428.62 216.072 428.946 216.617 428.946C217.925 428.946 218.851 428.295 218.633 427.52C218.524 426.95 218.252 426.991 217.162 427.887Z" fill="#0DAB76"/>
<path id="Vector_40" d="M222.229 473.071C222.719 504.117 224.175 521.884 224.175 521.884H242.439H255.485H257.225L256.721 509.658C256.557 503.913 256.121 488.023 255.795 474.375C255.413 460.685 255.086 449.277 254.923 448.992C254.759 448.584 251.217 448.503 238.303 448.503L221.848 448.544L222.229 473.071Z" fill="#0DAB76"/>
</g>
<g id="Robbin">
<path id="&#227;&#131;&#173;" d="M92.0351 167.041C93.6351 167.081 95.1551 167.121 96.2351 167.121C99.1551 167.121 115.395 167.121 118.275 167.121C119.275 167.121 120.755 167.121 122.235 167.081C122.155 168.281 122.155 169.721 122.155 170.961C122.155 173.401 122.155 188.121 122.155 190.561C122.155 192.121 122.195 195.961 122.235 196.121H116.675C116.675 195.961 116.795 192.841 116.795 190.641C116.795 188.321 116.795 172.241 116.795 172.241H97.4351C97.4351 172.241 97.4351 188.281 97.4351 190.641C97.4351 192.561 97.4751 195.921 97.4751 196.121H91.9951C91.9951 195.921 92.0751 192.401 92.0751 190.481C92.0751 188.081 92.0751 173.281 92.0751 170.961C92.0751 169.801 92.0751 168.201 92.0351 167.041ZM118.755 188.841V193.921H94.7151V188.841H118.755Z" fill="#262928"/>
<path id="&#227;&#131;&#147;" d="M116.515 212.39C117.515 213.87 118.915 216.39 119.675 217.87L116.475 219.27C115.635 217.63 114.435 215.27 113.355 213.71L116.515 212.39ZM121.235 210.59C122.275 212.11 123.755 214.63 124.475 216.03L121.275 217.43C120.475 215.75 119.155 213.43 118.075 211.91L121.235 210.59ZM99.2351 214.15C99.0751 215.35 98.9551 217.15 98.9551 218.31C98.9551 220.75 98.9551 235.47 98.9551 238.47C98.9551 240.23 99.7551 240.67 101.555 240.99C102.755 241.19 104.395 241.23 106.155 241.23C110.355 241.23 116.795 240.75 120.115 239.87V245.71C116.315 246.27 110.275 246.51 105.875 246.51C103.275 246.51 100.835 246.35 99.1151 246.07C95.6751 245.43 93.6351 243.55 93.6351 240.07C93.6351 235.47 93.6351 220.79 93.6351 218.31C93.6351 217.39 93.5151 215.35 93.3551 214.15H99.2351ZM96.5951 226.43C101.755 225.31 108.595 223.15 112.795 221.43C114.195 220.83 115.555 220.19 117.155 219.27L119.275 224.31C117.755 224.95 115.955 225.71 114.635 226.23C109.915 228.03 102.075 230.39 96.6351 231.67L96.5951 226.43Z" fill="#262928"/>
<path id="&#227;&#131;&#179;" d="M96.6351 263.78C99.3951 265.66 104.595 269.82 106.955 272.26L102.875 276.42C100.795 274.18 95.7551 269.82 92.8351 267.82L96.6351 263.78ZM91.5951 290.42C97.8751 289.54 103.035 287.5 106.915 285.22C113.755 281.14 118.955 275.06 121.515 269.66L124.595 275.26C121.595 280.7 116.275 286.22 109.835 290.1C105.755 292.54 100.595 294.74 94.9951 295.7L91.5951 290.42Z" fill="#262928"/>
</g>
<rect id="Rectangle 49" x="1.5" y="456.5" width="292" height="139" stroke="#DFE0E2" stroke-width="3"/>
</g>
</svg>
