<svg width="404" height="400" viewBox="0 0 404 400" fill="none" xmlns="http://www.w3.org/2000/svg">
<g id="Cuadro 5">
<rect id="Rectangle 46" x="45.4998" y="190.071" width="168.429" height="168.429" fill="#3C91E6" fill-opacity="0.2" stroke="#191919" stroke-width="3"/>
<rect id="Rectangle 47" x="234.071" y="1.5" width="168.429" height="397" fill="#DFE0E2" fill-opacity="0.1" stroke="#191919" stroke-width="3"/>
<g id="Karpa" opacity="0.8">
<path id="Vector" d="M131.836 231.159C131.768 231.323 131.657 231.461 131.589 231.461C131.444 231.461 131.418 231.599 131.546 231.677C131.802 231.832 131.376 232.065 130.839 232.065C130.634 232.065 130.404 232.117 130.31 232.177C130.216 232.237 129.841 232.419 129.483 232.574C129.099 232.746 128.818 232.919 128.818 232.988C128.818 233.057 128.861 233.29 128.92 233.505C129.006 233.876 129.006 233.92 128.835 234.058C128.733 234.135 128.647 234.247 128.647 234.29C128.647 234.342 128.545 234.463 128.426 234.558C128.178 234.756 127.761 234.791 127.317 234.661C127.087 234.592 127.019 234.618 126.84 234.817C126.729 234.937 126.456 235.145 126.235 235.274L125.834 235.515L126.004 235.688C126.209 235.895 126.218 235.964 126.03 236.197C125.911 236.335 125.723 236.395 125.152 236.456C124.06 236.576 122.057 237.18 119.78 238.077C117.998 238.776 114.469 240.752 113.173 241.77C112.849 242.028 112.303 242.442 111.97 242.693C110.572 243.736 108.688 245.531 106.437 247.946C105.729 248.705 105.619 248.792 105.03 249.007C103.274 249.671 102.046 250.896 100.946 253.062C100.725 253.51 100.358 254.105 100.145 254.39C99.5395 255.175 99.2582 255.951 99.0024 257.47C98.9512 257.797 98.5761 258.798 98.4567 258.953C98.4056 259.014 98.2691 259.066 98.1583 259.066C98.0475 259.066 97.7405 259.126 97.4677 259.195C95.9671 259.592 94.62 259.126 93.1706 257.703L92.3521 256.909L92.0707 257.142C91.3289 257.78 91.2948 257.832 91.3886 258.082C91.4398 258.212 91.5762 258.427 91.687 258.565C91.8064 258.703 91.9002 258.85 91.9002 258.893C91.9002 258.997 91.4739 259.324 91.3375 259.324C91.2778 259.324 90.8174 259.109 90.3058 258.85C89.2315 258.289 89.0951 258.289 88.2851 258.79C87.8588 259.057 87.7054 259.109 87.3047 259.109C87.0403 259.1 86.6993 259.066 86.5544 259.031C86.1877 258.936 86.1963 259.022 86.5799 259.531C87.5945 260.877 90.3143 262.145 92.8807 262.482C94.8928 262.74 96.4446 262.663 97.7917 262.231C98.7295 261.93 99.4457 261.507 100.494 260.644C100.742 260.437 101.304 260.092 101.731 259.868C102.157 259.652 102.634 259.385 102.779 259.273C103.206 258.945 103.76 258.16 104.399 257.004C105.073 255.779 105.584 255.158 105.891 255.201C106.437 255.279 106.258 256.409 105.525 257.496C105.278 257.858 104.8 258.496 104.459 258.919C103.956 259.523 103.845 259.704 103.913 259.825C104.075 260.135 104.34 260.299 104.749 260.316C104.971 260.325 105.184 260.342 105.226 260.351C105.26 260.351 105.286 260.558 105.286 260.791C105.286 261.257 105.047 261.843 104.664 262.309C104.109 262.999 103.888 263.439 103.658 264.319C103.342 265.518 103.342 265.604 103.734 265.984C104.152 266.398 104.451 266.502 104.996 266.433C105.414 266.381 105.448 266.398 105.584 266.605C105.806 266.95 105.712 267.683 105.337 268.546C105.022 269.271 104.962 269.719 105.124 270.038C105.235 270.245 105.695 270.452 106.045 270.452C106.42 270.452 106.565 270.651 106.565 271.16C106.565 271.505 106.505 271.695 106.258 272.1C105.721 272.997 105.465 274.11 105.704 274.498C105.806 274.662 105.9 274.585 106.539 273.748C106.855 273.334 107.46 272.609 107.887 272.135C108.313 271.66 108.807 271.074 108.995 270.841C109.174 270.599 109.37 270.366 109.421 270.323C109.677 270.09 110.274 268.977 110.854 267.692C111.135 267.054 111.646 265.535 111.8 264.845C112.167 263.258 112.243 261.032 112.022 258.591C111.894 257.168 111.877 256.616 111.945 256.003C111.988 255.572 112.047 254.873 112.081 254.45C112.132 253.674 112.132 253.674 112.525 253.243C114.69 250.87 116.327 249.715 118.578 248.955C119.695 248.576 120.914 248.541 122.321 248.843C122.85 248.964 123.353 249.093 123.447 249.145C123.728 249.292 124.657 249.568 125.092 249.628C125.322 249.663 125.612 249.775 125.732 249.878C125.859 249.982 126.132 250.172 126.354 250.293C126.584 250.431 126.814 250.655 126.934 250.87C127.036 251.06 127.189 251.25 127.266 251.293C127.351 251.336 127.803 251.388 128.272 251.405C129.15 251.448 129.645 251.612 129.739 251.897C129.773 251.992 129.577 252.009 128.664 251.975C128.051 251.957 127.565 251.966 127.573 251.992C127.59 252.018 127.667 252.19 127.744 252.38C128.213 253.493 128.34 253.657 129.227 254.192L129.798 254.537L129.824 254.994C129.85 255.486 129.773 255.434 130.736 255.615C132.1 255.874 132.254 256.029 131.12 256.003L130.353 255.977L129.926 256.331C129.688 256.521 129.5 256.702 129.5 256.736C129.5 256.797 130.864 257.047 131.862 257.176C133.013 257.314 133.823 257.659 134.147 258.125C134.241 258.255 134.505 258.652 134.744 258.997C134.974 259.342 135.264 259.747 135.383 259.894C135.502 260.04 135.75 260.368 135.937 260.618C136.491 261.36 137.011 261.93 137.446 262.292C137.736 262.533 137.821 262.654 137.753 262.706C137.566 262.818 136.329 262.784 135.792 262.646C135.511 262.568 135.068 262.516 134.803 262.533C134.326 262.559 134.317 262.568 134.309 262.818C134.3 263.258 134.283 263.284 133.925 263.387C133.652 263.474 133.593 263.525 133.627 263.655C133.652 263.758 133.575 263.931 133.431 264.095C133.081 264.492 132.774 265.13 132.91 265.173C133.064 265.225 133.584 265.708 133.678 265.889C133.806 266.131 133.695 266.295 133.311 266.424C133.081 266.502 132.945 266.605 132.927 266.709C132.91 266.795 132.748 267.028 132.569 267.218C132.177 267.64 132.058 267.865 132.058 268.192C132.058 268.33 131.981 268.546 131.879 268.675L131.708 268.9L131.947 268.995C132.254 269.107 132.91 269.754 132.91 269.935C132.91 270.013 132.851 270.151 132.783 270.245C132.604 270.487 132.629 270.625 132.859 270.625C133.141 270.625 133.175 270.711 133.089 271.168C133.038 271.479 133.055 271.626 133.175 271.893C133.26 272.074 133.328 272.307 133.337 272.411C133.337 272.575 133.388 272.609 133.618 272.609C134.172 272.609 134.172 272.902 133.593 273.817C133.362 274.179 133.345 274.248 133.379 274.938L133.405 275.671L133.695 275.646C133.942 275.628 135.264 275.913 135.366 276.008C135.383 276.034 135.357 276.189 135.298 276.362C135.17 276.767 135.23 276.965 135.46 276.836C135.698 276.715 135.698 276.707 135.75 277.147C135.792 277.578 136.04 277.983 136.27 278.026C136.483 278.07 136.679 277.863 137.335 276.888C138.64 274.938 140.004 272.281 140.465 270.798C140.78 269.78 141.053 268.822 141.189 268.296C141.445 267.252 141.658 266.631 141.922 266.139C142.084 265.829 142.255 265.544 142.289 265.501C142.332 265.458 142.63 265.622 142.988 265.898C144.165 266.803 145.495 267.356 147.234 267.649C147.678 267.727 148.053 267.804 148.061 267.813C148.078 267.821 148.172 268.003 148.283 268.218C148.888 269.383 151.139 270.021 152.674 269.46C153.39 269.202 153.458 269.193 153.816 269.417C154.012 269.538 154.251 269.59 154.592 269.59C154.916 269.59 155.198 269.65 155.419 269.762C155.607 269.857 155.931 269.961 156.144 269.995C156.357 270.021 156.528 270.056 156.528 270.064C156.528 270.082 156.4 270.289 156.255 270.521C156.101 270.763 155.897 271.091 155.803 271.246C155.624 271.539 155.146 271.781 154.55 271.876C154.021 271.962 154.183 272.091 154.805 272.091C155.487 272.091 156.144 271.919 156.741 271.574C157.014 271.419 157.44 271.281 157.926 271.194C158.642 271.065 158.83 270.987 159.478 270.504C159.546 270.452 159.708 270.461 159.929 270.539C160.415 270.703 161.208 270.608 161.669 270.34C162.411 269.9 163.024 269.046 163.391 267.942C163.51 267.588 163.724 267.14 163.868 266.942C164.218 266.441 164.431 265.924 164.576 265.225C165.045 262.939 164.858 261.895 163.886 261.429L163.425 261.214L163.485 260.808C163.519 260.549 163.485 260.213 163.4 259.876C163.186 259.04 163.221 258.591 163.545 257.901C163.834 257.28 164.073 256.495 163.996 256.409C163.971 256.383 163.758 256.547 163.519 256.771C163.28 256.995 162.956 257.237 162.803 257.297C162.649 257.366 162.351 257.616 162.138 257.867L161.763 258.306L161.541 257.97C161.37 257.703 161.174 257.565 160.688 257.349C160.177 257.116 160.015 256.995 159.802 256.667C159.392 256.055 159.043 255.382 158.744 254.666C158.599 254.312 158.446 253.941 158.403 253.847C158.352 253.752 158.258 253.502 158.19 253.286C157.866 252.337 156.655 250.387 156.127 249.956C155.948 249.809 155.377 249.447 154.865 249.154C153.953 248.636 153.595 248.343 153.654 248.17C153.705 248.007 154.524 247.756 156.263 247.377C158.676 246.842 159.571 246.583 160.748 246.083C161.737 245.66 163.169 244.487 165.292 242.373C166.111 241.571 167.049 240.717 167.381 240.476C167.714 240.234 167.987 240.001 167.987 239.958C167.995 239.906 167.697 239.855 167.33 239.829C166.554 239.777 166.375 239.639 166.452 239.156C166.486 238.914 166.469 238.88 166.298 238.88C166.196 238.88 166 238.768 165.864 238.621C165.54 238.276 165.139 238.147 164.772 238.267C164.61 238.328 164.414 238.345 164.337 238.31C164.244 238.276 164.133 238.319 164.022 238.44C163.783 238.699 163.655 238.673 163.229 238.276C163.024 238.086 162.828 237.931 162.794 237.931C162.752 237.931 162.632 237.845 162.521 237.741C162.342 237.577 162.317 237.569 162.18 237.689C162.095 237.767 161.873 237.888 161.694 237.965C161.507 238.043 161.157 238.319 160.918 238.578C160.535 239.001 160.45 239.052 160.143 239.052C159.614 239.052 159.469 238.897 159.469 238.328C159.469 237.827 159.443 237.776 159.273 237.948C159.196 238.026 159.094 238.026 158.847 237.948C158.335 237.793 158.071 237.819 157.482 238.103C156.92 238.371 156.655 238.423 156.57 238.276C156.536 238.224 156.451 238.241 156.331 238.319C156.161 238.431 156.076 238.423 155.649 238.31C155.172 238.19 155.138 238.19 154.763 238.379C154.541 238.492 154.208 238.724 154.021 238.906C153.791 239.121 153.637 239.208 153.526 239.173C153.416 239.139 153.347 239.19 153.271 239.371C153.211 239.501 153.151 239.63 153.134 239.656C153.117 239.682 152.785 239.699 152.401 239.699C151.898 239.699 151.651 239.734 151.54 239.829C151.455 239.898 151.318 239.949 151.224 239.932C151.105 239.906 151.071 239.958 151.071 240.165C151.071 240.51 150.653 240.924 150.235 240.993C149.715 241.088 149.707 241.088 149.698 241.571C149.673 242.503 149.783 243.866 149.937 244.47C150.005 244.772 150.039 245.039 150.014 245.065C149.988 245.099 149.69 244.841 149.357 244.496C148.505 243.624 147.311 242.675 146.467 242.21C145.486 241.657 144.898 241.269 144.037 240.596C142.877 239.699 140.226 238.198 138.683 237.577C137.566 237.137 137.037 236.706 136.705 235.964C136.04 234.506 135.656 233.963 134.718 233.143C134.351 232.833 133.968 232.488 133.848 232.384C133.729 232.281 133.405 232.013 133.124 231.789C132.842 231.573 132.501 231.271 132.365 231.125C132.22 230.978 132.075 230.857 132.041 230.857C131.998 230.857 131.904 230.995 131.836 231.159Z" fill="#DFE0E2"/>
<path id="Vector_2" d="M121.775 269.719C120.872 270.694 118.493 274.955 118.118 276.275C118.032 276.56 117.896 276.982 117.819 277.224C117.734 277.457 117.564 278.026 117.444 278.475C116.881 280.545 116.771 280.873 116.498 281.382C116.327 281.675 116.165 281.934 116.131 281.96C116.089 281.986 115.85 281.839 115.594 281.641C114.315 280.631 113.181 280.166 111.007 279.752C110.538 279.665 110.444 279.622 110.325 279.398C109.83 278.466 108.637 277.845 107.162 277.742C106.642 277.707 106.446 277.742 105.823 277.957L105.09 278.216L104.638 277.992C104.263 277.811 104.109 277.776 103.803 277.819C103.504 277.871 103.368 277.845 103.146 277.707C102.984 277.612 102.66 277.483 102.413 277.431C101.969 277.328 101.867 277.25 102.046 277.138C102.097 277.103 102.251 276.853 102.387 276.577C102.694 275.956 102.95 275.749 103.564 275.619C104.28 275.473 104.365 275.395 103.905 275.326C103.248 275.223 102.328 275.447 101.68 275.861C101.466 275.999 101.083 276.12 100.648 276.189C99.7953 276.335 99.71 276.361 99.207 276.724C98.8063 277.008 98.7977 277.008 98.5334 276.87C98.1924 276.689 97.4506 276.75 96.905 276.991C96.1547 277.328 95.4129 278.311 95.0463 279.441C94.944 279.743 94.7138 280.209 94.5347 280.485C94.0914 281.132 93.989 281.434 93.7674 282.616C93.5457 283.849 93.5713 284.634 93.8697 285.247C94.0402 285.6 94.1596 285.721 94.5347 285.911L94.9951 286.152L94.9781 286.696C94.9695 286.989 95.0036 287.343 95.0548 287.481C95.0974 287.61 95.1486 287.964 95.1486 288.266C95.1571 288.732 95.106 288.93 94.8161 289.577C94.475 290.336 94.3386 290.828 94.4324 290.931C94.458 290.957 94.6626 290.811 94.8928 290.595C95.1145 290.388 95.4214 290.164 95.5834 290.095C95.7454 290.026 96.0609 289.758 96.2826 289.508C96.5554 289.206 96.7089 289.085 96.7344 289.154C96.76 289.223 96.8879 289.396 97.0243 289.551C97.2375 289.801 97.4932 289.948 98.1753 290.207C98.559 290.362 99.2496 291.596 100.043 293.571C100.639 295.072 101.321 296.323 101.944 297.082C102.276 297.487 102.958 297.962 103.794 298.393C104.075 298.531 104.416 298.773 104.561 298.919C105.005 299.385 104.936 299.42 100.972 300.3C97.3483 301.102 96.419 301.663 92.821 305.208C92.1218 305.898 91.2778 306.657 90.9538 306.882C90.6298 307.115 90.3655 307.339 90.3655 307.382C90.3655 307.425 90.5957 307.46 90.877 307.46C91.1755 307.46 91.508 307.52 91.6444 307.589C91.8746 307.71 91.9002 307.77 91.9002 308.115C91.9002 308.469 91.9172 308.512 92.0622 308.469C92.173 308.443 92.3179 308.521 92.5055 308.719C92.838 309.064 93.2643 309.211 93.5883 309.09C93.7077 309.038 93.8953 309.021 93.9976 309.047C94.1169 309.081 94.2363 309.038 94.3301 308.926C94.5518 308.676 94.7393 308.71 95.1315 309.081C95.3191 309.254 95.6005 309.478 95.7625 309.582C96.0438 309.754 96.0523 309.754 96.2399 309.599C96.3508 309.513 96.5128 309.444 96.6065 309.444C96.7003 309.444 96.9732 309.237 97.2119 308.987C97.4591 308.728 97.7405 308.478 97.8428 308.426C98.0474 308.314 98.542 308.288 98.6869 308.391C98.883 308.521 98.9938 308.866 98.9427 309.194C98.8915 309.521 98.8915 309.53 99.1047 309.426C99.2667 309.357 99.369 309.357 99.531 309.426C99.8976 309.599 100.341 309.547 100.963 309.254C101.449 309.03 101.577 308.995 101.714 309.081C101.842 309.159 101.91 309.159 102.038 309.081C102.166 309.004 102.31 309.004 102.677 309.09C102.941 309.15 103.24 309.168 103.342 309.133C103.589 309.056 104.195 308.641 104.476 308.357C104.621 308.21 104.749 308.158 104.851 308.193C104.971 308.227 105.03 308.184 105.098 307.977L105.192 307.71L105.874 307.727C106.394 307.736 106.616 307.701 106.787 307.589C106.906 307.511 107.059 307.468 107.128 307.494C107.213 307.529 107.247 307.468 107.247 307.304C107.256 306.873 107.767 306.424 108.253 306.424C108.475 306.424 108.552 306.381 108.62 306.183C108.748 305.872 108.654 303.707 108.483 303.017C108.415 302.732 108.364 302.474 108.355 302.43C108.347 302.249 108.603 302.43 109.072 302.948C109.651 303.595 111.041 304.742 111.655 305.096C112.789 305.734 113.59 306.261 114.375 306.856C115.671 307.856 118.024 309.194 119.78 309.927C120.607 310.272 120.829 310.41 121.213 310.798C121.451 311.057 121.656 311.316 121.656 311.376C121.656 311.609 122.423 313.032 122.781 313.472C123.157 313.921 123.609 314.335 124.734 315.267C125.084 315.551 125.57 315.974 125.817 316.215C126.252 316.621 126.277 316.638 126.397 316.474C126.465 316.388 126.516 316.267 126.516 316.207C126.516 316.146 126.593 316.069 126.686 316.043C126.814 316 126.848 315.939 126.806 315.775C126.763 315.612 126.797 315.551 126.985 315.482C127.104 315.439 127.368 315.396 127.565 315.396C127.769 315.396 127.999 315.344 128.093 315.284C128.187 315.223 128.537 315.06 128.861 314.921C129.193 314.792 129.483 314.654 129.509 314.628C129.543 314.602 129.517 314.352 129.457 314.076C129.372 313.628 129.372 313.567 129.526 313.429C129.619 313.351 129.722 313.196 129.764 313.093C129.867 312.817 130.438 312.679 130.924 312.817C131.273 312.912 131.308 312.903 131.427 312.73C131.504 312.627 131.717 312.463 131.904 312.351C132.621 311.954 132.586 311.997 132.399 311.833C132.22 311.678 132.186 311.462 132.297 311.273C132.339 311.221 132.672 311.134 133.047 311.083C133.985 310.962 134.053 310.945 135.681 310.462C138.188 309.72 140.175 308.848 142.758 307.347C144.02 306.623 144.702 306.174 145.401 305.622C145.64 305.441 146.1 305.087 146.433 304.846C147.874 303.776 148.539 303.138 152.256 299.282C152.546 298.988 152.836 298.747 152.904 298.747C152.981 298.747 153.1 298.712 153.185 298.669C153.262 298.626 153.705 298.411 154.157 298.195C154.814 297.876 155.121 297.669 155.615 297.168C156.272 296.521 156.962 295.512 157.508 294.425C157.679 294.08 157.994 293.554 158.207 293.269C158.753 292.545 159.051 291.854 159.256 290.854C159.614 289.137 159.861 288.568 160.253 288.568C160.39 288.568 160.68 288.507 160.901 288.438C161.771 288.171 162.769 288.283 163.732 288.74C164.278 289.008 164.585 289.241 165.267 289.905C165.727 290.371 166.128 290.698 166.145 290.647C166.162 290.595 166.35 290.431 166.554 290.293C167.168 289.862 167.219 289.603 166.793 289.085C166.529 288.775 166.554 288.568 166.878 288.404C167.108 288.292 167.177 288.318 168.097 288.783C169.197 289.336 169.342 289.353 170.007 288.93C170.536 288.594 170.885 288.481 171.457 288.481C171.729 288.481 171.968 288.447 171.994 288.404C172.071 288.283 171.414 287.584 170.783 287.119C170.118 286.618 168.686 285.937 167.526 285.566C166.009 285.083 163.297 284.867 161.771 285.109C160.45 285.324 159.06 285.98 158.02 286.886C157.764 287.101 157.227 287.446 156.809 287.653C156.4 287.86 155.897 288.154 155.692 288.3C155.197 288.671 154.618 289.439 154.012 290.56C153.219 292.018 152.682 292.605 152.392 292.363C152.026 292.061 152.196 291.147 152.793 290.233C153.245 289.534 154.072 288.473 154.388 288.188C154.797 287.817 154.413 287.343 153.646 287.274L153.16 287.231L153.134 286.782C153.1 286.247 153.211 286.006 153.85 285.16C154.098 284.824 154.379 284.384 154.473 284.168C154.72 283.599 155.095 282.115 155.035 281.925C155.01 281.831 154.822 281.632 154.626 281.477C154.302 281.218 154.226 281.192 153.646 281.184C153.126 281.184 152.989 281.149 152.895 281.02C152.614 280.631 152.682 279.993 153.126 279.036C153.356 278.518 153.492 277.931 153.433 277.681C153.364 277.422 152.93 277.181 152.529 277.181C152.188 277.181 151.958 276.939 151.881 276.499C151.83 276.189 151.864 276.068 152.222 275.404C152.64 274.636 152.861 273.98 152.861 273.497C152.861 273.187 152.785 272.954 152.691 272.954C152.648 272.954 152.324 273.333 151.958 273.791C151.591 274.257 150.943 275.024 150.517 275.499C150.09 275.973 149.57 276.577 149.366 276.836C149.153 277.095 148.922 277.379 148.846 277.466C148.726 277.595 148.539 277.94 147.908 279.165C147.294 280.355 146.578 282.572 146.424 283.737C146.279 284.867 146.279 287.291 146.424 289.008C146.561 290.569 146.569 290.897 146.467 291.682C146.407 292.174 146.339 292.872 146.322 293.226C146.288 293.821 146.262 293.899 146.015 294.14C145.861 294.287 145.512 294.675 145.231 295.003C144.676 295.65 144.011 296.254 143.193 296.832C142.911 297.039 142.613 297.263 142.545 297.324C142.229 297.6 140.626 298.333 139.731 298.618C138.069 299.127 137.037 299.049 134.36 298.186C133.865 298.022 133.32 297.876 133.141 297.841C132.962 297.815 132.748 297.72 132.663 297.634C132.578 297.548 132.348 297.384 132.143 297.272C131.93 297.16 131.683 296.927 131.58 296.763C131.214 296.185 131.205 296.185 130.216 296.116C129.577 296.073 129.185 296.004 128.971 295.892C128.349 295.572 128.613 295.452 129.756 295.512C130.191 295.529 130.617 295.572 130.702 295.598C130.898 295.667 130.898 295.633 130.736 295.245C130.668 295.081 130.617 294.925 130.617 294.908C130.608 294.882 130.515 294.675 130.404 294.442C130.165 293.977 129.85 293.675 129.185 293.295C128.673 293.002 128.562 292.846 128.562 292.415C128.562 292.251 128.528 292.087 128.477 292.061C128.434 292.036 128.076 291.958 127.692 291.898C126.831 291.751 126.456 291.613 126.576 291.492C126.627 291.44 126.738 291.44 126.865 291.483C126.976 291.527 127.3 291.544 127.573 291.518C127.999 291.483 128.153 291.423 128.537 291.121L128.988 290.767L128.545 290.664C128.102 290.56 127.155 290.414 126.456 290.336C126.269 290.319 125.8 290.198 125.416 290.069C124.64 289.81 124.487 289.663 123.574 288.326C122.551 286.799 121.639 285.704 120.931 285.134C120.65 284.91 120.616 284.85 120.718 284.772C120.906 284.651 121.886 284.669 122.406 284.807C122.654 284.876 123.105 284.962 123.412 284.988C124.077 285.065 124.222 284.979 124.154 284.556C124.112 284.289 124.137 284.246 124.35 284.16C124.785 283.987 124.853 283.935 124.828 283.78C124.811 283.694 124.887 283.53 125.007 283.401C125.118 283.28 125.305 282.995 125.433 282.771L125.646 282.365L125.356 282.184C125.007 281.96 124.7 281.546 124.742 281.347C124.76 281.261 124.93 281.14 125.152 281.063C125.399 280.977 125.544 280.873 125.57 280.761C125.587 280.666 125.749 280.424 125.928 280.217C126.294 279.821 126.431 279.536 126.431 279.191C126.431 279.061 126.499 278.889 126.584 278.794C126.686 278.673 126.695 278.613 126.627 278.587C126.567 278.57 126.328 278.397 126.09 278.199C125.595 277.802 125.493 277.526 125.697 277.172L125.842 276.922L125.578 276.87L125.314 276.81L125.373 276.318C125.416 275.939 125.39 275.749 125.288 275.533C125.211 275.387 125.152 275.188 125.152 275.093C125.152 275.007 125.084 274.929 125.007 274.921C124.922 274.921 124.802 274.904 124.751 274.904C124.691 274.895 124.589 274.834 124.512 274.757C124.393 274.636 124.393 274.593 124.521 274.291C124.598 274.11 124.76 273.825 124.879 273.653C125.109 273.359 125.126 273.221 125.075 272.35C125.066 272.229 125.075 272.057 125.084 271.962C125.101 271.841 125.066 271.798 124.981 271.824C124.717 271.884 124.41 271.85 123.788 271.686C123.088 271.505 123.063 271.462 123.233 270.849C123.302 270.608 123.293 270.599 123.029 270.651C122.773 270.702 122.764 270.702 122.764 270.375C122.764 270.004 122.466 269.477 122.227 269.434C122.134 269.417 121.954 269.529 121.775 269.719Z" fill="#6A6E75"/>
</g>
<g id="Group">
<path id="Vector_3" d="M141.748 0.785446C143.436 1.78891 144.467 3.05415 144.936 4.66843C145.374 6.21727 145.186 7.48253 144.155 9.62036C142.342 13.307 143.53 15.1176 148.875 16.9064C151.75 17.8663 153.626 18.957 156.439 21.2475C158.127 22.6218 158.627 22.5346 161.877 20.2877C163.221 19.3278 164.472 18.5425 164.659 18.5425C165.503 18.5425 164.691 19.6114 162.69 21.0948C159.971 23.1454 159.158 24.3015 159.408 25.7631C159.627 26.9193 160.158 27.7701 161.221 28.5554L161.94 29.1008L162.127 28.5554C162.221 28.2718 162.503 28.0318 162.753 28.0318C163.128 28.0318 163.19 28.4027 163.128 30.0824C163.034 32.3075 163.409 33.3982 165.003 35.6233C165.91 36.8885 169.723 39.9208 170.098 39.6808C170.192 39.5936 169.754 38.6773 169.098 37.6084C167.941 35.7324 167.91 35.5797 167.91 33.1583C167.941 30.955 168.035 30.4096 168.879 28.6863C169.379 27.5956 169.942 26.723 170.098 26.723C170.598 26.723 172.755 29.5152 173.442 31.0641C174.318 33.0492 174.13 35.6015 172.911 38.0229C171.786 40.248 171.942 40.9679 173.943 43.2584C176.162 45.7889 176.631 46.5306 177.568 48.8647C179.1 52.595 180.6 54.2748 183.601 55.5618C184.57 55.9763 186.977 57.8305 191.353 61.5172C198.635 67.6689 207.419 74.6059 207.919 74.6059C208.95 74.6059 205.762 71.3556 201.98 68.4978C198.698 66.0546 196.51 64.1349 196.51 63.7423C196.51 63.5896 196.854 63.4805 197.291 63.4805C198.51 63.4805 198.823 62.7824 199.011 59.5539C199.136 57.1325 199.261 56.6089 199.636 56.6089C200.011 56.6089 200.136 57.1979 200.292 60.0992C200.573 64.9421 200.761 65.2257 206.543 69.8504C210.232 72.8171 210.951 73.3625 211.92 73.9079L212.764 74.3878L212.138 75.2604C211.795 75.7185 211.513 76.3293 211.513 76.591C211.513 77.2237 214.483 79.9069 216.983 81.543C220.39 83.7899 223.703 84.837 228.986 85.4041L231.955 85.7095L235.268 88.0655C237.738 89.8325 239.144 90.6396 240.77 91.2286C243.364 92.1885 247.928 93.1483 249.865 93.1483C251.397 93.1483 255.585 92.5593 256.023 92.2757C256.429 92.0139 255.117 90.6396 253.679 89.8543C252.178 89.0254 252.178 88.5018 253.71 88.3491C254.523 88.2618 254.835 88.1091 254.96 87.6947C255.273 86.7348 256.023 87.062 256.492 88.3491C256.742 89.0035 256.992 89.5925 257.054 89.658C257.117 89.7016 257.492 89.4835 257.867 89.1344C258.461 88.6327 258.649 88.5672 258.93 88.829C259.18 89.0472 259.211 89.418 258.961 90.1597C258.805 90.7269 258.742 91.3377 258.805 91.4904C259.055 91.9485 261.993 92.5593 263.118 92.3848C264.587 92.1448 267.494 91.185 267.682 90.836C267.838 90.5524 263.181 85.3605 262.306 84.8588C261.962 84.6624 261.743 84.8151 261.243 85.6223C260.43 86.9093 259.868 86.8003 259.649 85.3605C259.524 84.5315 259.211 84.008 258.336 83.2227C256.773 81.8265 255.679 81.303 251.866 80.0378C248.084 78.7943 246.552 78.0308 242.27 75.2385C238.613 72.8608 234.768 70.8102 233.331 70.483C232.768 70.3521 229.548 70.1558 226.173 70.0467C222.828 69.9158 219.828 69.7631 219.546 69.6758C219.265 69.6104 219.015 69.3704 219.015 69.1523C219.015 68.8251 219.546 68.7596 223.766 68.6506C229.048 68.476 233.206 68.8033 236.394 69.5886C238.926 70.1994 239.019 70.1776 239.019 69.0868C239.019 67.8434 237.925 66.2946 235.737 64.4622C233.456 62.5207 232.768 61.5608 232.424 59.8375C231.768 56.6744 229.705 55.1255 225.329 54.5365C222.828 54.1875 222.891 53.7512 225.454 53.8385C226.454 53.8603 227.704 53.8167 228.204 53.7076L229.111 53.5331L226.392 51.4607C222.828 48.7775 219.796 45.658 220.296 45.2435C220.797 44.829 220.89 44.8945 224.86 48.3194C226.704 49.9337 228.298 51.1989 228.423 51.1553C228.517 51.0898 228.705 50.5663 228.83 49.9773C228.923 49.3883 229.361 48.5812 229.799 48.1885C232.674 45.3744 233.049 44.3273 232.487 40.4225C232.174 38.1756 231.987 37.543 231.486 37.1721C230.83 36.6922 229.423 36.2123 224.797 34.8816C221.672 33.9872 219.171 32.3511 217.765 30.2787C217.233 29.5152 216.827 28.7953 216.827 28.6645C216.827 27.9882 220.859 28.2064 223.547 29.0135C225.735 29.6679 228.673 31.8494 230.049 33.8127C231.424 35.7978 231.518 35.3179 230.267 32.3947C229.767 31.1949 229.33 29.7115 229.33 29.1226C229.33 28.5117 229.205 27.8791 229.048 27.7046C228.58 27.2029 229.017 27.0065 229.799 27.3556L230.517 27.6828L230.486 26.1122C230.424 23.8653 231.018 22.4691 232.518 21.2693C233.737 20.2877 235.456 19.4805 235.8 19.7205C236.112 19.9168 236.488 21.662 236.488 22.7963C236.488 24.3234 235.675 25.7849 233.612 27.8791C232.549 28.948 231.83 29.9079 231.83 30.2569C231.83 30.5841 232.549 33.2891 233.424 36.2996C235.331 42.8439 235.331 43.5202 233.424 48.6466C231.393 54.1875 231.299 53.5549 234.643 58.1359C238.55 63.5023 239.363 64.0477 241.489 62.6952C242.145 62.3025 243.114 61.3863 243.645 60.7101C244.646 59.3576 247.209 54.2748 246.927 54.1002C246.865 54.0348 245.458 53.9475 243.833 53.9257C241.739 53.8603 240.895 53.7512 240.895 53.5767C240.895 52.835 243.364 51.0462 246.083 49.8028C246.646 49.541 246.646 49.5192 246.146 49.301C243.864 48.3194 242.77 47.1196 241.395 44.131C240.613 42.364 240.582 41.6659 241.332 41.6659C242.051 41.6659 245.114 42.364 246.365 42.8221C247.052 43.0621 248.303 43.6947 249.147 44.2182C249.99 44.7418 250.803 45.0908 250.928 45.0036C251.084 44.8945 252.022 43.9783 252.991 42.9748C253.991 41.9495 255.023 41.0988 255.304 41.0551C255.961 40.9679 256.711 42.2331 257.18 44.2401C257.617 46.0288 257.023 47.9267 255.585 49.5846C255.054 50.1736 254.648 50.6972 254.648 50.7844C254.648 50.8717 255.148 51.2207 255.773 51.5697C257.086 52.3114 257.773 53.3149 257.773 54.5365C257.773 55.78 257.086 55.6709 256.086 54.2529C255.367 53.2495 253.647 51.7006 253.21 51.7006C252.679 51.7006 251.147 52.4423 250.24 53.1622C249.365 53.8385 248.74 54.8419 247.052 58.3104C245.114 62.3025 244.677 63.4805 245.146 63.4805C245.271 63.4805 246.365 63.2187 247.584 62.9133C249.365 62.477 250.459 62.3461 253.054 62.3025C256.804 62.2589 257.148 62.1062 257.148 60.4046C257.148 59.7284 257.305 59.3357 257.586 59.2703C258.18 59.0958 258.711 59.5321 258.711 60.1865C258.711 60.4919 259.367 61.6917 260.149 62.8697C261.43 64.7676 261.618 65.2475 261.868 67.2762C262.181 69.9158 263.368 72.9044 264.712 74.6059C267.088 77.5945 267.119 77.66 266.494 78.947C266.307 79.3179 266.244 79.885 266.338 80.1686C266.713 81.1939 284.404 96.3987 292.375 102.572C294.969 104.579 298.032 106.979 299.157 107.917C302.471 110.687 303.815 111.276 311.316 113.218C313.973 113.916 315.786 114.265 315.942 114.156C316.13 114.025 316.036 113.632 315.755 113.13C315.255 112.323 315.348 111.909 315.974 111.909C316.161 111.909 317.193 112.498 318.287 113.218C319.443 114.003 320.506 114.527 320.912 114.527C321.756 114.527 325.538 112.018 326.82 110.622C327.32 110.076 327.914 109.204 328.133 108.702C328.945 106.761 329.633 106.63 335.853 107.241C342.323 107.851 343.198 107.35 338.103 105.91C331.508 104.056 330.383 104.056 315.692 106.063C307.847 107.11 308.034 107.153 306.628 104.71C305.534 102.79 302.783 100.194 298.689 97.2058C295.313 94.7408 293.25 93.8027 291.156 93.8027C289.437 93.8027 288.03 93.2574 288.155 92.6466C288.249 92.1012 288.374 92.1012 291.625 92.4939C292.812 92.6466 293.844 92.6902 293.969 92.6248C294.25 92.4066 293.531 91.1414 291.156 87.7601C288.718 84.3134 287.686 83.419 284.623 82.132C280.841 80.5613 279.341 79.4924 280.278 79.0779C280.685 78.9034 288.343 82.0447 289.405 82.83C290.562 83.7026 294.75 88.1091 296.376 90.1815C298.376 92.7556 300.064 94.3699 304.221 97.6857C309.972 102.267 309.941 102.245 311.691 102.441C313.567 102.638 330.164 101.961 331.54 101.634C332.04 101.503 332.477 101.307 332.477 101.22C332.477 101.132 330.946 101.023 329.102 100.958C325.82 100.892 325.601 100.849 323.069 99.9763C321.631 99.4745 320.037 98.8201 319.506 98.5365C318.724 98.0784 318.63 97.9475 319.006 97.6421C319.224 97.4458 319.787 97.2931 320.256 97.2713C320.693 97.2713 322.538 97.0531 324.35 96.7913L327.632 96.3114L327.539 95.657C327.07 92.5375 327.132 91.5995 327.945 89.8979C328.383 88.9599 328.945 88.0001 329.195 87.7819C329.602 87.3893 329.695 87.4111 331.071 88.3491C334.04 90.3779 334.947 93.0174 333.915 96.5732C332.696 100.762 333.665 101.874 339.104 102.529C340.51 102.703 341.761 103.052 342.855 103.532C346.011 104.928 346.855 105.146 348.762 104.994C352.482 104.732 355.263 105.844 357.42 108.44C358.764 110.098 359.921 110.774 364.203 112.454C366.266 113.261 368.735 114.308 369.704 114.745C370.642 115.203 372.33 115.835 373.424 116.163C375.174 116.664 375.549 116.708 376.674 116.512C377.393 116.381 379.581 116.184 381.55 116.054C386.114 115.748 394.116 114.897 397.335 114.352C398.898 114.09 400.384 114.155 400.571 114.286L400.571 125.714C400.384 126.042 399.836 126.35 399.617 126.394C397.898 126.721 389.677 128.052 389.333 128.052C389.115 128.052 387.302 128.597 385.301 129.23C381.238 130.582 377.581 131.193 371.705 131.52C367.079 131.782 362.64 132.349 361.234 132.851C359.796 133.353 358.452 134.443 358.202 135.272C358.108 135.599 357.764 136.058 357.42 136.276C356.826 136.647 356.764 136.625 355.138 136.036C352.638 135.076 351.919 135.185 346.449 137.257C341.042 139.33 341.073 139.286 342.167 141.446C342.886 142.907 342.98 144.173 342.417 144.674C342.198 144.871 340.479 145.438 338.635 145.961C335.978 146.681 335.197 146.834 334.884 146.616C334.321 146.223 335.79 145.416 337.916 144.958C340.229 144.456 340.76 144.02 340.479 142.864C340.26 141.86 338.729 139.635 337.978 139.177C337.478 138.893 334.79 138.937 330.07 139.33C328.476 139.439 328.414 139.482 328.101 140.246C327.664 141.402 327.226 143.562 326.882 146.18C326.695 147.445 326.476 148.623 326.382 148.819C326.226 149.081 325.507 149.19 323.163 149.277C320.537 149.364 319.474 149.539 314.973 150.63C309.316 151.982 305.128 153.269 303.502 154.142C302.596 154.622 298.345 158.352 297.282 159.595C296.844 160.097 295.907 159.857 295.907 159.203C295.907 158.941 296.688 157.763 297.657 156.563C299.189 154.687 299.376 154.338 299.095 153.88C298.689 153.291 295.969 151.851 295.219 151.829C294.594 151.829 290.187 155.08 287.686 157.392C286.655 158.352 284.936 160.424 283.842 161.995C281.747 165.027 281.122 165.594 280.497 165.158C280.216 164.962 280.403 164.416 281.185 162.78C282.779 159.595 284.717 157.109 288.311 153.749C291.124 151.066 291.781 150.368 291.437 150.281C291.406 150.259 289.624 150.172 287.467 150.062C276.715 149.561 276.84 149.583 276.84 148.863C276.84 147.772 285.561 146.572 289.374 147.139C289.968 147.227 291.093 147.532 291.906 147.816C292.719 148.099 293.5 148.339 293.656 148.339C294.063 148.339 296.313 144.936 296.094 144.652C295.969 144.522 295.5 144.413 295.032 144.413C294.563 144.413 293.688 144.303 293.094 144.194C291.906 143.933 280.903 142.34 278.122 142.013C275.715 141.729 275.152 141.38 274.183 139.592C273.277 137.955 272.277 137.126 268.776 135.076C267.119 134.116 266.775 133.592 267.619 133.374C268.401 133.156 270.026 134.051 274.371 137.105C279.747 140.9 280.31 141.097 285.78 141.293C290.999 141.468 295.875 141.228 296.126 140.769C296.219 140.595 296.063 140.29 295.813 140.093C295.344 139.766 295.063 139.788 292.562 140.246C289.53 140.769 284.342 140.835 284.123 140.333C283.935 139.941 286.123 139.613 288.061 139.744C289.249 139.831 290.437 139.766 291.687 139.504C294.625 138.937 294.907 138.893 295.719 139.046C296.126 139.112 296.876 139.461 297.376 139.831C297.938 140.268 298.564 140.486 299.126 140.486C299.626 140.486 302.721 140.006 306.003 139.395C309.316 138.806 313.973 138.064 316.349 137.737C318.724 137.432 321.162 137.039 321.694 136.865C324.257 136.123 325.788 134.596 326.101 132.48C326.351 130.757 327.07 129.666 328.32 129.121C330.008 128.379 329.664 128.095 326.914 127.964C317.349 127.463 312.129 126.568 304.659 124.125C299.595 122.467 298.126 122.227 295.469 122.554C292.343 122.969 287.968 122.882 285.279 122.358C283.341 121.965 281.747 121.878 276.371 121.791C270.432 121.704 269.307 121.747 264.431 122.249C256.336 123.1 254.429 122.991 249.772 121.398C245.865 120.067 245.708 120.198 241.395 128.052C238.113 134.007 236.988 135.185 233.456 136.428C231.33 137.192 230.58 137.89 228.142 141.424C226.954 143.125 224.704 145.896 223.078 147.576C220.296 150.477 219.015 152.222 219.015 153.117C219.015 153.335 218.671 153.684 218.234 153.88C217.671 154.142 217.452 154.425 217.452 154.971C217.452 155.363 217.265 155.8 217.046 155.952C216.296 156.389 215.889 155.756 215.889 154.12C215.889 152.331 216.639 150.586 218.671 147.707C219.359 146.681 219.953 145.743 219.953 145.591C219.953 145.198 217.827 145.023 215.889 145.285C212.295 145.743 208.981 147.248 203.199 150.979C199.417 153.444 197.792 154.36 191.196 157.698C187.852 159.421 184.914 160.926 184.695 161.079C184.414 161.275 184.57 161.69 185.57 163.064C187.07 165.136 187.914 167.732 187.633 169.368C187.289 171.244 187.164 171.266 184.632 170.066C182.476 169.041 180.882 167.645 180.882 166.816C180.882 166.227 180.475 166.38 179.256 167.383C178.662 167.907 177.318 168.627 176.318 168.998C174.411 169.696 169.942 170.503 169.129 170.285C168.473 170.11 168.598 169.063 169.442 167.427C171.098 164.22 173.224 163.042 178.819 162.191C180.882 161.864 181.538 161.668 182.632 160.948C184.039 160.032 184.57 159.334 184.101 159.006C183.663 158.701 177.537 157.916 174.943 157.828C164.159 157.501 159.346 156.738 160.94 155.625C161.346 155.342 161.565 155.32 162.159 155.56C163.565 156.083 169.098 156.411 176.849 156.411C187.477 156.411 186.883 156.563 195.01 152.004C198.792 149.888 201.949 147.925 202.949 147.074C205.074 145.263 207.044 144.303 209.7 143.736C212.295 143.213 213.795 142.34 214.514 140.966C214.827 140.399 215.139 139.875 215.233 139.788C215.358 139.701 216.389 140.071 217.546 140.595C219.953 141.729 221.109 141.969 222.453 141.577C223.61 141.249 224.141 140.595 224.766 138.653C225.391 136.777 225.829 136.363 228.204 135.272C230.83 134.094 233.487 132.065 234.8 130.255C236.8 127.441 238.707 121.66 238.707 118.279C238.707 117.341 238.863 116.228 239.051 115.748C239.457 114.745 239.019 113.261 238.05 112.323C237.738 111.996 235.8 111.014 233.768 110.12C231.705 109.226 229.267 107.939 228.173 107.175C225.548 105.343 225.266 105.255 223.078 105.583C221.359 105.844 217.108 105.779 214.076 105.452L212.701 105.321L207.075 109.378C202.011 113.021 198.01 115.53 190.102 120.024C187.539 121.485 186.602 122.423 186.945 123.209C187.07 123.449 188.071 123.907 189.571 124.343C193.541 125.565 197.948 128.924 196.979 130.015C196.51 130.538 191.884 130.037 189.571 129.23C187.883 128.641 187.914 128.619 187.633 130.299C187.539 130.887 187.164 131.804 186.82 132.349C186.008 133.614 182.226 136.385 181.382 136.298C180.256 136.167 179.819 134.792 179.788 131.324V128.161L176.037 128.052C171.411 127.921 171.254 127.768 174.13 125.936C177.256 123.929 178.912 123.405 182.288 123.296C183.82 123.252 185.289 123.1 185.476 122.991C186.101 122.642 185.945 121.769 185.226 121.485C183.101 120.7 177.068 123.143 163.315 130.386C159.596 132.349 156.001 134.4 155.345 134.967C153.594 136.45 152.063 137.475 150.844 137.977C149.844 138.392 149.75 138.544 149.062 140.682C148.249 143.256 147.28 144.718 145.718 145.809C143.967 147.052 140.873 148.775 140.435 148.775C140.029 148.775 139.841 147.641 139.841 145.394C139.841 143.147 141.904 140.988 145.874 139.155C147.781 138.261 148.531 137.759 149.031 137.039C149.625 136.21 149.656 136.036 149.25 135.774C148.656 135.359 141.217 134.356 138.372 134.312C137.091 134.291 134.965 134.356 133.653 134.465L131.308 134.661L130.308 133.789C129.652 133.2 127.901 132.349 124.682 131.04C118.806 128.641 118.462 128.575 116.305 128.924L114.617 129.208L112.742 128.292C110.522 127.201 107.991 126.525 106.115 126.525C104.209 126.525 102.302 127.244 101.646 128.204C101.02 129.099 100.958 128.837 103.865 135.687C105.771 140.224 106.115 141.947 105.459 143.562C103.896 147.292 97.4258 149.67 92.2059 148.426C87.6112 147.336 85.2044 144.5 86.1734 141.293C87.5174 136.712 96.5506 136.516 97.5821 141.053C97.8947 142.297 97.1133 142.907 95.019 143.038C93.6125 143.147 93.3937 143.104 92.7998 142.558C91.6433 141.555 90.9869 142.471 91.9559 143.736C93.2687 145.547 97.7071 145.438 99.4575 143.562C100.739 142.209 100.739 141.337 99.4575 138.632C96.9257 133.287 96.7382 132.654 96.5194 129.6L96.3318 126.677L93.675 126.176C92.2059 125.892 89.7992 125.521 88.2988 125.347C85.1419 124.954 83.329 125.172 81.2035 126.154C78.6405 127.354 77.9528 128.422 74.6083 136.581C73.6081 139.046 72.6079 141.708 72.3891 142.471C72.1703 143.235 71.8889 143.954 71.7952 144.042C71.3263 144.413 70.6387 143.54 70.4199 142.384C70.2011 141.053 69.9823 140.486 69.6072 140.486C69.4822 140.486 68.8883 141.009 68.2632 141.62C67.6381 142.253 66.7003 143.213 66.2002 143.736C65.6376 144.282 65.2313 144.98 65.2313 145.329C65.2313 145.678 65.7626 146.812 66.3878 147.859C67.6381 149.866 68.8883 150.913 71.6389 152.266C73.7331 153.291 74.6083 154.513 74.6083 156.411C74.6083 157.305 74.452 158.025 74.1707 158.265C73.6706 158.745 74.1082 158.919 69.951 156.454C68.5132 155.603 67.1067 154.884 66.8566 154.884C66.6378 154.884 65.5438 155.233 64.4811 155.647C61.8555 156.672 61.668 156.65 61.8868 155.363C62.1368 153.88 63.0745 152.484 64.7624 151.175C66.4815 149.823 66.4815 149.648 64.5749 147.401C63.6997 146.376 63.1996 145.983 62.9182 146.092C62.0743 146.463 57.9484 149.823 56.9482 150.957C54.979 153.247 54.5102 154.6 54.3539 158.483C54.2601 161.144 54.3539 162.322 54.729 163.457C55.4166 165.485 55.3853 166.227 54.6664 166.227C54.2601 166.227 53.9476 165.965 53.6975 165.333C53.4787 164.853 53.1661 164.482 52.9786 164.526C52.791 164.569 52.1972 165.507 51.6346 166.598C50.228 169.281 49.7904 169.826 48.6026 170.328C47.4149 170.83 43.7266 171.593 43.4453 171.397C43.1639 171.201 44.8206 167.383 45.5082 166.576C46.2896 165.725 47.7587 164.744 49.6341 163.871C50.4468 163.5 51.4782 162.868 51.9471 162.475C52.7285 161.842 52.791 161.668 52.541 160.664C51.8533 157.523 52.2284 154.884 53.8538 151.568C54.2601 150.695 54.6039 149.888 54.6039 149.713C54.6039 149.561 53.885 149.19 53.0411 148.885C52.1659 148.579 51.4782 148.186 51.4782 148.034C51.4782 147.597 52.5722 147.401 53.3224 147.663C53.6662 147.794 54.1664 147.903 54.4789 147.903C55.4791 147.903 61.4804 144.587 61.4804 144.042C61.4804 143.693 61.4179 143.693 60.3864 144.02C59.7926 144.194 59.5113 144.216 59.2299 144.02C58.6986 143.649 59.3862 143.191 61.5117 142.427C63.6997 141.664 65.1687 140.66 66.419 139.003C66.9504 138.326 68.2007 137.126 69.1696 136.341C71.9515 134.138 73.0455 132.065 73.0455 128.99C73.0455 127.79 72.9204 127.506 72.2641 127.07C71.6077 126.612 71.2326 126.525 69.4822 126.525C65.3563 126.525 62.1994 127.354 51.5095 131.302C48.2588 132.48 43.539 134.116 40.976 134.923C33.4431 137.301 33.193 137.388 31.849 138.348C29.1296 140.29 24.5661 145.94 23.4721 148.71C22.6595 150.782 22.3156 151.197 21.7217 150.782C21.4404 150.586 21.4404 150.193 21.6905 149.168C22.0968 147.554 21.878 145.307 21.3154 145.132C21.0966 145.089 20.1277 145.285 19.1587 145.612C16.8457 146.376 15.8455 147.488 15.8455 149.343C15.8455 150.826 16.4081 152.418 17.377 153.727C18.0959 154.709 18.3148 154.818 18.8774 154.425C19.3463 154.098 20.2214 154.338 20.2214 154.796C20.2214 154.993 19.9401 155.494 19.565 155.909C18.9086 156.65 18.8774 156.76 19.4713 159.377C19.7213 160.533 19.1587 161.384 18.4398 160.97C18.1585 160.795 18.0334 160.468 18.1272 160.163C18.3148 159.465 17.7521 158.33 17.2833 158.439C17.0957 158.483 16.5956 158.963 16.158 159.53C15.5641 160.315 15.2203 160.555 14.7514 160.512C14.2513 160.468 14.0951 160.25 14.0325 159.53C13.9388 158.701 14.0638 158.505 15.3141 157.567C17.0332 156.258 17.127 156.062 16.5331 154.993C15.908 153.858 13.0948 150.848 12.6573 150.848C12.4697 150.848 12.0321 151.59 11.657 152.484C10.5318 155.145 9.46906 156.345 6.40588 158.417C4.74927 159.552 3.34271 160.337 2.96762 160.337C2.37375 160.337 2.3425 160.228 2.4675 157.545C2.62381 153.793 3.15518 153.138 8.12503 150.521C9.12524 149.997 11.0632 148.732 12.4385 147.728C14.3139 146.31 14.9077 145.721 14.9077 145.263C14.9077 144.783 15.064 144.631 15.5016 144.631C16.5956 144.631 16.6269 144.151 15.5641 143.496C14.1576 142.624 12.376 142.667 8.43759 143.671C6.74973 144.107 4.90555 144.5 4.34293 144.565C3.49899 144.652 3.34271 144.609 3.34271 144.238C3.34271 143.627 4.43671 143.147 8.7814 141.795C13.3136 140.399 15.0953 140.29 18.3148 141.206C20.2214 141.751 20.3464 141.751 21.5342 141.424C22.8157 141.053 25.3475 139.112 25.1287 138.653C25.035 138.501 24.3473 138.435 23.3159 138.457C21.4717 138.523 18.1272 138.13 17.8459 137.846C17.6271 137.585 19.0337 137.214 21.0028 136.996C28.1294 136.167 28.692 135.948 30.2549 133.614C32.3803 130.408 32.3178 130.08 29.4109 128.488C26.9104 127.07 25.5663 126.895 22.9095 127.593C19.4088 128.51 16.2205 127.921 13.3449 125.892C11.5008 124.561 9.93793 122.707 10.4068 122.38C10.9381 122.009 14.3764 121.507 16.3456 121.507C19.7838 121.507 22.722 122.598 24.9099 124.67C25.5976 125.325 26.4728 125.979 26.8791 126.132C27.6293 126.416 31.6302 126.895 35.0997 127.092C38.6317 127.31 42.195 126.416 44.5705 124.692C45.1644 124.256 46.0708 123.863 46.6022 123.798C47.1335 123.732 51.1657 123.645 55.5417 123.58C59.9176 123.536 64.4186 123.383 65.5438 123.274C66.6691 123.165 69.2634 122.925 71.3264 122.729C74.9209 122.38 76.1711 122.096 75.2022 121.834C72.8892 121.245 71.8577 121.071 70.92 121.071C69.6697 121.071 64.7312 121.638 62.9808 121.987C62.3557 122.118 60.6053 122.183 59.0737 122.118C55.9167 121.987 54.01 121.507 51.8846 120.286C50.1967 119.304 46.9773 118.519 43.5703 118.191C41.0072 117.951 35.9749 118.235 30.8488 118.911C29.911 119.042 28.0356 119.173 26.6916 119.217C24.066 119.282 24.3161 119.348 19.5963 117.515C18.471 117.079 17.1895 116.708 16.7206 116.708C15.6579 116.708 15.3454 116.359 15.9705 115.857C16.5019 115.443 16.6269 114.832 16.2205 114.657C16.0642 114.592 14.2201 114.963 12.0634 115.465C8.34378 116.337 8.03122 116.359 4.62424 116.337C0.717133 116.294 -0.189301 116.054 1.15472 115.443C1.59235 115.246 2.28 114.788 2.71759 114.439C4.71802 112.803 5.81198 112.192 7.21857 111.909C7.99997 111.756 8.65637 111.582 8.65637 111.538C8.65637 111.494 7.87494 110.949 6.90598 110.338C4.49921 108.789 3.56152 107.437 3.53024 105.386C3.49899 103.27 3.7803 103.139 6.71844 103.794C10.7193 104.688 12.626 106.193 13.9075 109.444C15.4079 113.196 16.1267 113.632 23.7534 115.377C28.442 116.468 29.9423 116.708 31.8177 116.752C35.381 116.817 38.5379 116.25 40.257 115.225C41.1635 114.723 41.3198 114.679 42.2263 114.941C43.8828 115.421 47.8524 116.272 48.3838 116.272C49.134 116.272 51.7283 117.275 53.1036 118.104C53.7913 118.519 54.9478 118.955 55.6979 119.086C57.6671 119.435 68.8883 119.391 71.889 119.02C74.3583 118.715 75.8274 118.78 79.922 119.348C83.1727 119.806 82.8914 120.046 82.9852 116.664C83.0477 114.221 82.9539 113.414 82.4225 112.083C80.5471 107.328 81.6411 102.769 85.767 98.2311C88.08 95.7006 89.2678 94.1954 89.6429 93.3228C90.3305 91.6867 91.2057 88.5454 91.0182 88.3491C90.7681 88.0437 89.5179 88.0655 89.0802 88.3709C88.3613 88.8727 87.8925 88.4364 87.8925 87.2366V86.0586L89.2365 85.8404C89.9867 85.7095 90.7681 85.4259 90.9244 85.2078C91.1119 84.9678 91.1745 84.008 91.1119 82.9827C90.9869 81.3248 90.8619 81.063 89.8617 80.0159C88.7364 78.8598 87.83 77.0928 88.205 76.8092C88.3301 76.7438 89.1428 76.6783 90.0179 76.7001C91.1745 76.7001 92.4247 76.9401 94.4564 77.5509C96.2381 78.0963 97.8947 78.4235 98.9886 78.4889C101.27 78.598 105.896 77.7472 109.585 76.5474C111.148 76.0457 112.523 75.6748 112.617 75.7403C112.71 75.8275 112.648 76.6129 112.46 77.5073C112.273 78.4017 112.023 80.2341 111.929 81.543L111.71 83.9644L112.648 84.597C113.148 84.9678 114.211 85.3823 114.961 85.535C116.774 85.8841 117.118 86.124 116.399 86.4949C115.867 86.7566 115.867 86.8003 116.367 86.9966C117.43 87.4111 116.524 87.6947 114.617 87.542L112.742 87.4111V88.6981C112.742 89.3962 112.96 90.7923 113.211 91.7958C114.023 95.0462 114.117 97.4458 113.523 100.696C112.929 104.056 112.867 103.707 114.867 107.001C116.399 109.553 116.868 111.124 117.024 114.461C117.211 117.777 116.836 119.544 115.461 121.791C114.773 122.947 114.961 123.231 116.336 123.252C117.336 123.252 119.806 124.147 123.275 125.739C126.901 127.397 128.526 127.855 133.465 128.488C135.372 128.75 139.06 129.251 141.623 129.6C144.186 129.949 146.999 130.233 147.874 130.233C151.031 130.233 154.063 129.382 157.283 127.615C158.314 127.048 160.846 125.783 162.909 124.779C164.972 123.798 167.566 122.314 168.691 121.507C170.411 120.264 171.004 119.98 172.505 119.675C173.474 119.478 174.505 119.326 174.849 119.326C176.474 119.304 180.256 117.995 187.633 114.919C192.134 113.043 196.354 111.32 197.01 111.08C197.698 110.84 198.604 110.36 199.073 110.011C200.105 109.247 206.2 102.856 206.2 102.529C206.2 102.419 205.637 102.158 204.949 101.961C203.918 101.678 203.418 101.263 201.761 99.4527C200.667 98.2747 199.667 97.2931 199.479 97.2931C199.136 97.2931 196.479 98.7765 191.79 101.569C188.727 103.401 186.602 105.234 181.382 110.535C177.85 114.112 175.755 115.595 172.942 116.512C170.754 117.232 166.785 117.624 166.378 117.188C166.066 116.839 168.504 115.683 170.286 115.312C173.036 114.723 173.693 114.265 174.13 112.454C174.536 110.993 175.318 110.207 181.976 104.819C187.821 100.064 190.259 98.3184 192.947 96.9004C193.697 96.5078 193.791 96.3987 193.384 96.2023C192.728 95.8751 192.197 95.9842 187.758 97.3585C182.851 98.8419 160.471 104.71 159.627 104.71C158.814 104.71 158.846 104.317 159.689 103.685C160.658 102.965 160.377 102.834 154.47 101.22C147.187 99.2128 145.186 98.5365 143.717 97.6203C143.03 97.1622 142.436 96.7259 142.436 96.6168C142.436 96.0496 143.748 96.3114 148.406 97.7294C162.69 102.114 162.753 102.114 168.379 100.456C173.505 98.9292 188.79 93.541 189.133 93.1265C189.446 92.712 189.133 91.6213 188.696 91.6213C188.508 91.6213 187.821 91.9049 187.102 92.2539C184.664 93.4973 181.257 93.9554 177.443 93.5628C174.912 93.3228 174.505 93.1919 174.88 92.7993C175.224 92.4502 178.412 90.6614 180.006 89.8979C180.85 89.5053 181.507 89.1126 181.507 89.0254C181.507 88.9163 180.882 88.3709 180.1 87.8037C179.288 87.1929 178.444 86.2549 178.037 85.535C177.287 84.1171 176.412 81.1939 176.693 80.9103C176.943 80.6049 177.787 80.6704 179.944 81.1721C181.507 81.543 182.382 81.9574 184.164 83.1354C186.07 84.4225 186.445 84.7933 186.633 85.5787C187.039 87.2802 189.133 89.8979 191.54 91.7085C192.759 92.6248 194.103 93.4319 194.51 93.4973C194.947 93.5846 195.791 93.4319 196.698 93.1483C197.823 92.7556 198.417 92.3194 199.542 91.1195C202.449 87.9346 204.324 87.2802 213.983 86.0149C214.764 85.9277 215.42 85.7095 215.514 85.5568C215.577 85.4041 215.139 84.946 214.545 84.5315L213.451 83.768H209.138C204.856 83.768 199.948 83.3099 199.073 82.83C198.854 82.6991 198.729 82.4592 198.76 82.2628C198.854 81.9792 199.511 81.9138 203.074 81.9138C207.762 81.892 209.732 81.5866 209.888 80.8231C209.982 80.2995 205.512 76.4602 197.104 69.9158C188.258 63.0006 188.227 62.9788 187.039 63.1096C186.508 63.1751 185.195 63.4369 184.164 63.7205C181.569 64.3967 178.694 64.3967 176.756 63.7423C174.88 63.0878 173.286 62.0844 173.442 61.6044C173.567 61.1463 175.349 60.6882 178.225 60.4046C180.35 60.1865 181.444 60.2738 185.508 61.0155C186.164 61.1245 186.133 61.0373 185.07 59.9684C183.445 58.2668 182.788 57.8087 181.038 57.2415C178.881 56.5217 178.068 56.5653 176.849 57.4597C175.537 58.3977 174.661 58.5504 172.317 58.245C170.473 58.0051 170.254 58.0269 166.347 58.8558C164.097 59.3357 160.721 60.1429 158.846 60.6446C154.282 61.8662 153.563 61.9317 151.281 61.19C150.281 60.8628 148.281 60.3392 146.812 59.9902C145.343 59.6629 142.373 58.834 140.185 58.1796L136.184 56.9798L135.59 57.5469C134.34 58.7904 133.434 60.3828 132.965 62.0844C132.152 65.1166 130.12 67.3635 126.807 68.9341C124.025 70.2648 123.994 70.243 123.994 67.3417C123.994 65.4002 124.119 64.7021 124.619 63.9822C125.432 62.6952 127.839 60.9718 129.558 60.4046C131.152 59.8811 132.746 58.9649 132.746 58.5722C132.746 58.2886 130.12 57.5906 129.058 57.5906C128.683 57.5906 127.495 57.8523 126.463 58.1577C125.401 58.4632 124.463 58.6377 124.369 58.5722C124.275 58.5068 124.338 58.1359 124.557 57.7651C124.869 57.1979 124.838 56.9798 124.432 56.5435C123.619 55.6709 124.275 55.4964 126.557 55.9763C129.402 56.5871 132.465 56.4998 134.778 55.7581C135.778 55.4527 136.872 55.191 137.247 55.191C138.341 55.191 142.811 56.5653 145.311 57.656C146.624 58.2232 148.281 58.834 149 59.0085C150.719 59.423 154.688 59.4448 155.845 59.0303C157.939 58.2668 157.877 57.6124 155.564 55.7581C153.563 54.1657 153.188 53.6421 152.625 51.7006C151.781 48.9302 150.469 47.6213 146.874 45.9852C145.311 45.2872 144.499 44.6764 142.998 43.1711C141.967 42.1022 140.31 40.7279 139.341 40.0953C137.653 39.0264 135.059 37.7393 134.559 37.7393C134.434 37.7393 133.84 38.1102 133.215 38.5901C132.59 39.0482 131.433 39.5936 130.621 39.8117C129.808 40.0298 128.839 40.4007 128.433 40.6407C127.807 41.0333 127.62 41.0551 127.089 40.8152C126.714 40.6625 125.776 40.5534 124.994 40.5752C121.837 40.6625 121.775 40.6407 120.087 39.3754C118.274 38.0011 116.93 37.6302 112.742 37.3903C111.46 37.3248 110.085 37.1067 109.71 36.954C108.647 36.4959 108.428 36.5613 106.928 37.7175C105.365 38.9173 103.333 39.7026 100.083 40.3571C97.7071 40.837 96.0193 40.9242 95.7067 40.5752C95.3629 40.1825 98.2698 36.5177 99.4888 35.7978C100.145 35.427 100.614 35.0998 100.52 35.0561C100.458 35.0125 99.5826 34.7071 98.6136 34.3799C97.3321 33.9654 96.5194 33.4855 95.6754 32.7001C94.3314 31.4131 92.6748 28.7517 92.9248 28.2936C93.0499 28.0318 93.675 27.9446 95.8005 27.9664C100.552 27.9882 103.24 29.1008 105.24 31.8494C106.647 33.8127 108.147 34.6853 111.835 35.776C116.274 37.0631 118.274 37.2376 116.336 36.1687C115.524 35.7324 115.336 35.2525 115.836 35.0343C115.992 34.9471 116.774 35.2306 117.524 35.6451C120.962 37.4775 122.588 37.6302 127.964 36.6704C132.559 35.8414 134.246 35.8196 136.372 36.5177C138.31 37.1503 143.873 40.7934 145.593 42.5603C146.937 43.9565 149.062 45.3308 150.187 45.5271C151.031 45.658 151.594 45.3526 152.375 44.2837C152.907 43.542 153.813 42.9966 154.157 43.2148C154.251 43.2802 154.376 44.2182 154.438 45.2872C154.595 47.8613 156.251 52.4423 157.533 53.7948C158.783 55.1255 160.283 55.8672 161.909 55.9981C163.69 56.129 169.035 55.5182 170.942 54.9292C172.692 54.4056 175.255 52.5296 175.255 51.7661C175.255 51.4825 174.568 50.4136 173.693 49.3665C172.849 48.3412 171.723 46.7051 171.223 45.7671C169.41 42.5167 166.879 40.3353 160.19 36.4086C156.22 34.0745 154.907 33.0492 153.407 31.1731C152.282 29.777 150 28.1627 148.187 27.5301C147.531 27.2901 145.218 26.7448 143.092 26.3085C137.122 25.065 136.059 24.5851 132.621 21.5093C130.589 19.6769 128.308 18.1062 127.714 18.1062C127.557 18.1062 126.213 18.5207 124.744 19.0224C122.713 19.6987 121.556 19.9604 119.993 20.0477C117.399 20.2004 114.086 19.9823 111.648 19.4587C110.054 19.1315 109.772 18.9788 109.772 18.5425C109.772 18.1717 110.241 17.8226 111.491 17.2118C113.648 16.1647 116.024 15.7066 119.149 15.7066C120.493 15.7066 121.494 15.6412 121.369 15.5539C121.244 15.4667 120.337 15.1831 119.368 14.9213C114.117 13.5252 111.054 12.6526 110.772 12.4562C110.616 12.3472 110.866 11.9763 111.429 11.54L112.367 10.7983L113.898 11.3219C114.711 11.6055 116.367 12.0636 117.586 12.3253C118.774 12.6089 121.306 13.2197 123.181 13.6997C126.932 14.6813 126.057 14.2014 134.465 19.8732C141.123 24.367 142.686 25.0869 146.687 25.5232C150.469 25.9376 151.656 26.3085 153.282 27.6174C155.001 28.9917 157.158 29.7334 157.908 29.2098C158.283 28.948 158.189 28.5554 157.126 26.3521C155.657 23.2981 154.657 21.8583 153.188 20.724C151.031 19.0661 140.466 14.8777 137.216 14.3977C135.09 14.0705 133.371 13.5251 133.371 13.1325C133.371 12.8925 133.653 12.8489 134.684 12.958C135.966 13.0889 135.934 13.067 133.84 12.3472C131.402 11.54 128.276 9.90395 128.464 9.5331C128.651 9.14043 130.464 8.92229 134.09 8.85684C135.934 8.83502 137.528 8.74776 137.622 8.66049C137.716 8.59505 137.622 7.85336 137.435 7.02441C137.185 6.13 137.122 5.01749 137.247 4.29761C137.497 2.92328 139.372 0.000137329 140.029 0.000137329C140.248 0.000137329 141.029 0.349152 141.748 0.785446ZM136.809 13.2852C136.809 13.3943 137.903 13.6778 139.216 13.9396C141.31 14.3323 141.686 14.3541 142.092 14.0705C142.467 13.8306 142.467 13.6997 142.123 13.4379C141.842 13.1761 141.123 13.0889 139.279 13.0889C137.903 13.0889 136.809 13.1761 136.809 13.2852ZM127.245 38.1756C126.245 38.3065 124.932 38.4592 124.369 38.5246C123.088 38.6555 123.088 38.9391 124.369 39.2445C125.244 39.4627 125.745 39.419 127.807 38.8955C131.308 38.0229 131.058 37.7175 127.245 38.1756ZM249.147 63.8295C244.552 65.0293 242.77 65.9455 242.77 67.1453C242.77 67.6035 246.052 71.5737 247.928 73.4279C250.428 75.8494 252.147 76.6565 255.585 77.0055C256.992 77.1364 258.586 77.5073 259.993 78.009C261.212 78.4235 262.399 78.7289 262.649 78.6634C263.368 78.4671 263.118 77.6163 261.993 76.3729C260.243 74.4532 259.024 71.2901 259.024 68.6287C259.024 67.1235 258.461 66.011 257.211 65.0075C255.023 63.1969 252.772 62.8697 249.147 63.8295ZM212.107 89.2653C210.482 89.8325 207.669 91.0323 205.793 91.9485C202.949 93.3664 202.449 93.7155 202.449 94.2172C202.449 95.6788 207.169 99.8236 209.325 100.26C210.169 100.434 210.888 100.391 212.545 100.064C214.827 99.6272 214.514 99.6054 221.265 100.5C221.891 100.587 223.235 100.238 226.329 99.1691C229.736 98.013 230.986 97.4676 232.674 96.355L234.768 94.9589L233.737 93.8464C231.611 91.534 226.673 88.9599 223.203 88.3709C222.516 88.24 220.421 88.1746 218.515 88.1964C215.077 88.24 215.045 88.24 212.107 89.2653ZM262.149 96.9877C262.149 97.6203 264.337 100.26 266.15 101.787C270.214 105.234 276.09 109.117 278.622 110.033C280.341 110.644 282.466 110.36 282.466 109.531C282.466 108.986 280.685 106.084 279.872 105.255C279.497 104.885 278.403 104.034 277.403 103.358C275.559 102.07 273.058 99.5618 272.214 98.1657C271.964 97.7512 271.714 97.3585 271.62 97.2931C271.495 97.184 265.213 96.7259 263.15 96.6604C262.431 96.6386 262.149 96.7259 262.149 96.9877ZM249.178 98.2965C239.769 99.1255 236.581 99.8017 233.862 101.46C232.674 102.201 232.737 102.572 234.112 102.878C235.706 103.227 238.488 104.732 242.145 107.219C246.115 109.924 247.99 110.862 250.366 111.363C251.084 111.516 254.21 112.367 257.305 113.24C262.462 114.701 263.15 114.832 265.619 114.919C267.494 114.985 268.807 114.919 269.995 114.679C271.808 114.308 274.996 113.043 275.183 112.651C275.246 112.52 272.933 110.36 270.057 107.851C267.182 105.343 263.681 102.114 262.306 100.674C260.93 99.2346 259.461 97.9475 259.024 97.773C258.18 97.4676 258.43 97.4676 249.178 98.2965ZM330.383 109.007C330.039 109.226 329.602 109.924 329.383 110.578C328.914 112.105 328.164 112.803 325.913 113.763C324.225 114.483 323.382 115.225 323.85 115.574C324.194 115.792 356.67 115.595 357.014 115.377C357.201 115.246 356.107 114.396 354.107 113.087C352.044 111.734 350.606 110.6 350.106 109.924L349.356 108.855H346.605C344.074 108.855 343.73 108.92 342.386 109.509C341.573 109.858 340.667 110.164 340.354 110.164C340.073 110.164 338.479 109.815 336.853 109.4C333.477 108.549 331.321 108.418 330.383 109.007ZM341.26 126.83C341.01 127.026 340.948 127.441 341.073 127.899C341.323 128.75 341.073 129.142 339.448 130.626C338.479 131.52 335.916 134.814 335.916 135.163C335.916 135.73 343.573 133.723 346.449 132.415C347.512 131.935 349.075 131.084 349.981 130.517C351.669 129.47 354.357 127.157 354.357 126.765C354.357 126.59 352.325 126.525 347.981 126.525C342.855 126.525 341.542 126.59 341.26 126.83ZM48.1025 127.092C41.5073 128.619 33.1305 132.611 34.1307 133.723C34.2245 133.854 35.0997 133.942 36.0686 133.942C37.5064 133.942 38.5379 133.723 42.195 132.589C47.4774 130.975 49.9467 129.84 51.3845 128.401C53.3537 126.416 52.4785 126.066 48.1025 127.092ZM335.697 128.532C334.071 129.295 331.977 131.302 330.321 133.723C328.633 136.123 328.664 136.341 330.414 136.341C331.258 136.341 332.04 136.188 332.446 135.948C333.102 135.578 337.791 128.51 337.791 127.899C337.791 127.55 337.666 127.593 335.697 128.532ZM319.256 140.639C318.755 140.813 315.974 141.293 313.004 141.708C310.066 142.144 307.003 142.646 306.222 142.82C302.815 143.627 300.689 144.958 298.939 147.401C297.282 149.692 297.282 149.779 298.47 150.302C299.376 150.695 299.876 150.761 302.314 150.673C304.721 150.608 305.534 150.477 307.941 149.779C309.472 149.321 312.317 148.579 314.192 148.143C319.506 146.878 320.35 146.463 321.506 144.631C322.163 143.584 323.131 140.355 322.85 140.181C322.6 139.984 320.225 140.29 319.256 140.639Z" fill="#01041F"/>
</g>
<g id="Atrabajar">
<path id="&#228;&#187;&#149;" d="M263.946 268.509H266.898V288.717H263.946V268.509ZM257.538 275.325H272.994V278.109H257.538V275.325ZM258.186 286.893H272.586V289.677H258.186V286.893ZM253.698 275.109L256.506 272.277L256.554 272.325V290.541H253.698V275.109ZM256.242 268.077L259.026 268.965C257.322 273.189 254.586 277.581 251.778 280.317C251.49 279.645 250.65 278.085 250.122 277.389C252.546 275.157 254.874 271.629 256.242 268.077Z" fill="#191919"/>
<path id="&#228;&#186;&#139;" d="M260.154 309.195H263.082V328.995C263.082 330.411 262.722 330.987 261.81 331.395C260.874 331.755 259.578 331.803 257.538 331.803C257.394 331.131 256.938 330.123 256.578 329.547C257.73 329.595 259.146 329.571 259.554 329.571C260.01 329.547 260.154 329.403 260.154 328.995V309.195ZM251.154 310.755H272.274V313.035H251.154V310.755ZM256.362 315.819V316.971H266.97V315.819H256.362ZM253.626 313.995H269.922V318.795H253.626V313.995ZM253.026 319.851H270.33V329.235H267.402V321.819H253.026V319.851ZM250.602 322.827H272.826V325.011H250.602V322.827ZM252.834 326.139H268.962V328.227H252.834V326.139Z" fill="#191919"/>
<path id="&#227;&#129;&#184;" d="M250.602 363.586C251.322 363.01 251.898 362.458 252.618 361.714C253.746 360.562 255.57 358.09 257.082 356.362C258.762 354.442 260.298 354.274 262.05 355.978C263.706 357.562 265.602 360.034 267.018 361.594C268.554 363.274 270.618 365.41 272.898 367.45L270.402 370.33C268.698 368.698 266.658 366.394 265.122 364.594C263.634 362.842 261.834 360.538 260.73 359.266C259.866 358.354 259.41 358.474 258.714 359.338C257.754 360.562 256.074 362.938 255.042 364.306C254.49 365.074 253.938 365.938 253.506 366.562L250.602 363.586Z" fill="#191919"/>
</g>
</g>
</svg>
